<svg width="20" height="15" viewBox="0 0 20 15" fill="none" xmlns="http://www.w3.org/2000/svg">
<path d="M20 12.4999C20 12.9384 19.8767 13.3448 19.6791 13.7025L13.3643 6.63707L19.6106 1.17207C19.8536 1.55767 20 2.01063 20 2.50011V12.4999ZM10 7.91994L18.6916 0.314997C18.335 0.119742 17.9333 0 17.5001 0H2.49998C2.06619 0 1.66443 0.119742 1.3092 0.314997L10 7.91994ZM12.4232 7.45985L10.4113 9.22131C10.2936 9.32382 10.1471 9.37501 10 9.37501C9.85287 9.37501 9.70633 9.32382 9.58865 9.22131L7.57633 7.45976L1.18163 14.6155C1.56493 14.8559 2.01413 15 2.49994 15H17.5001C17.9858 15 18.4352 14.8559 18.8184 14.6155L12.4232 7.45985ZM0.389439 1.17203C0.146493 1.55763 0 2.01059 0 2.50011V12.5C0 12.9384 0.122751 13.3449 0.321056 13.7025L6.63513 6.63588L0.389439 1.17203Z" fill="url(#paint0_linear)"/>
<defs>
<linearGradient id="paint0_linear" x1="17.186" y1="-1.49514" x2="-1.73421" y2="5.60366" gradientUnits="userSpaceOnUse">
<stop stop-color="#E96F67"/>
<stop offset="1" stop-color="#EE5050"/>
</linearGradient>
</defs>
</svg>
