<svg width="20" height="18" viewBox="0 0 20 18" fill="none" xmlns="http://www.w3.org/2000/svg">
<path d="M15.3838 15.923C15.3838 16.3478 15.5345 16.7103 15.8347 17.0105C16.1349 17.3111 16.4977 17.4615 16.9227 17.4615C17.3471 17.4615 17.7099 17.3111 18.0101 17.0105C18.3106 16.7103 18.461 16.3478 18.461 15.923C18.461 15.4981 18.3108 15.1357 18.0101 14.8351C17.7099 14.5349 17.3471 14.3845 16.9227 14.3845C16.4977 14.3845 16.1349 14.5349 15.8347 14.8351C15.5345 15.1357 15.3838 15.4981 15.3838 15.923Z" fill="url(#paint0_linear)"/>
<path d="M19.7716 2.30481C19.6193 2.15254 19.4391 2.07638 19.2307 2.07638H4.7957C4.78757 2.02035 4.76956 1.91826 4.74152 1.77004C4.71348 1.62173 4.69151 1.5036 4.67547 1.41536C4.65934 1.3275 4.62946 1.22125 4.58529 1.09706C4.54122 0.972788 4.48914 0.874532 4.42907 0.802587C4.36908 0.730263 4.28897 0.668337 4.18878 0.616093C4.08867 0.564187 3.97441 0.538086 3.84627 0.538086H0.76938C0.560911 0.538086 0.380648 0.614367 0.228423 0.766424C0.076155 0.91865 0 1.09904 0 1.30734C0 1.51564 0.076155 1.69594 0.228423 1.84817C0.380775 2.00044 0.56108 2.07651 0.76938 2.07651H3.22103L5.34832 11.9685C5.3324 12.0005 5.25027 12.1526 5.10196 12.4252C4.95373 12.6977 4.83557 12.936 4.7475 13.1403C4.65939 13.3449 4.61531 13.503 4.61531 13.6151C4.61531 13.8234 4.69146 14.0038 4.84365 14.1563C4.99608 14.3081 5.17631 14.3845 5.38465 14.3845H6.15386H16.9231H17.6919C17.9002 14.3845 18.0805 14.3081 18.2327 14.1563C18.3851 14.0038 18.4612 13.8235 18.4612 13.6151C18.4612 13.4068 18.3851 13.2265 18.2327 13.0743C18.0805 12.9222 17.9002 12.8458 17.6919 12.8458H6.63445C6.82683 12.4611 6.92299 12.205 6.92299 12.0768C6.92299 11.9964 6.91297 11.9082 6.89289 11.8123C6.87281 11.7163 6.84881 11.61 6.82077 11.4936C6.79269 11.3778 6.77476 11.2916 6.76676 11.2354L19.3152 9.76913C19.5152 9.74492 19.6796 9.65908 19.8078 9.51065C19.9361 9.36255 20 9.1923 20 8.99987V2.84589C19.9999 2.63759 19.924 2.45728 19.7716 2.30481Z" fill="url(#paint1_linear)"/>
<path d="M4.61523 15.923C4.61523 16.3478 4.7654 16.7103 5.06593 17.0105C5.36655 17.3111 5.72897 17.4615 6.15378 17.4615C6.57834 17.4615 6.94097 17.3111 7.24138 17.0105C7.54192 16.7103 7.69225 16.3478 7.69225 15.923C7.69225 15.4981 7.54204 15.1357 7.24138 14.8351C6.94093 14.5349 6.57834 14.3845 6.15378 14.3845C5.72902 14.3845 5.36639 14.5349 5.06593 14.8351C4.76557 15.1357 4.61523 15.4981 4.61523 15.923Z" fill="url(#paint2_linear)"/>
<defs>
<linearGradient id="paint0_linear" x1="18.0281" y1="14.0778" x2="14.9509" y2="14.9438" gradientUnits="userSpaceOnUse">
<stop stop-color="#E96F67"/>
<stop offset="1" stop-color="#EE5050"/>
</linearGradient>
<linearGradient id="paint1_linear" x1="17.186" y1="-0.842067" x2="-1.33746" y2="6.6869" gradientUnits="userSpaceOnUse">
<stop stop-color="#E96F67"/>
<stop offset="1" stop-color="#EE5050"/>
</linearGradient>
<linearGradient id="paint2_linear" x1="7.25932" y1="14.0778" x2="4.18232" y2="14.9437" gradientUnits="userSpaceOnUse">
<stop stop-color="#E96F67"/>
<stop offset="1" stop-color="#EE5050"/>
</linearGradient>
</defs>
</svg>
