<svg width="20" height="20" viewBox="0 0 20 20" fill="none" xmlns="http://www.w3.org/2000/svg">
<path d="M14.2071 5.52454C13.0667 5.76265 11.8449 5.9036 10.5859 5.93712V9.41436H14.7072C14.6692 8.04475 14.4984 6.728 14.2071 5.52454Z" fill="url(#paint0_linear)"/>
<path d="M4.1202 9.41419C4.15884 7.95238 4.34175 6.54163 4.65522 5.24675C3.62866 4.9586 2.68941 4.58605 1.87486 4.13831C0.759228 5.67778 0.109974 7.49494 0 9.41419H4.1202Z" fill="url(#paint1_linear)"/>
<path d="M4.1202 10.5863H0C0.109974 12.5055 0.759228 14.3227 1.87483 15.8622C2.68937 15.4144 3.62866 15.0419 4.65522 14.7537C4.34175 13.4589 4.1588 12.0481 4.1202 10.5863Z" fill="url(#paint2_linear)"/>
<path d="M11.6851 0.677492C11.3268 0.374372 10.9589 0.170168 10.5859 0.0654297V4.76488C11.7367 4.73284 12.8499 4.60666 13.8877 4.39569C13.6972 3.8136 13.4758 3.26685 13.2247 2.76457C12.7735 1.8622 12.2555 1.15997 11.6851 0.677492Z" fill="url(#paint3_linear)"/>
<path d="M4.97062 15.8802C4.11275 16.1212 3.32438 16.425 2.63184 16.7858C2.72482 16.8866 2.81951 16.9862 2.91702 17.0837C4.0436 18.2103 5.39126 19.0353 6.86217 19.5186C6.45013 19.0316 6.06907 18.4435 5.72739 17.7601C5.43825 17.1818 5.18537 16.5515 4.97062 15.8802Z" fill="url(#paint4_linear)"/>
<path d="M6.77527 2.76457C6.52415 3.26685 6.30276 3.8136 6.1123 4.39569C7.15008 4.60666 8.2633 4.73284 9.41402 4.76488V0.0654297C9.04105 0.170207 8.67315 0.374372 8.31483 0.677492C7.74445 1.15997 7.2265 1.8622 6.77527 2.76457Z" fill="url(#paint5_linear)"/>
<path d="M15.8797 10.5863C15.8411 12.0481 15.6582 13.4589 15.3447 14.7537C16.3713 15.0419 17.3106 15.4144 18.1251 15.8622C19.2407 14.3227 19.8899 12.5056 19.9999 10.5863H15.8797Z" fill="url(#paint6_linear)"/>
<path d="M15.0293 4.1204C15.8872 3.87948 16.6755 3.57569 17.368 3.21483C17.275 3.11408 17.1804 3.0145 17.0828 2.91698C15.9563 1.79045 14.6086 0.965393 13.1377 0.482056C13.5497 0.969065 13.9308 1.55722 14.2725 2.24054C14.5616 2.81881 14.8145 3.44919 15.0293 4.1204Z" fill="url(#paint7_linear)"/>
<path d="M13.2247 17.2361C13.4758 16.7338 13.6972 16.187 13.8877 15.6049C12.8499 15.3939 11.7367 15.2678 10.5859 15.2357V19.9352C10.9589 19.8304 11.3268 19.6263 11.6851 19.3231C12.2555 18.8406 12.7735 18.1385 13.2247 17.2361Z" fill="url(#paint8_linear)"/>
<path d="M15.3447 5.24684C15.6582 6.54171 15.8411 7.95246 15.8797 9.41427H19.9999C19.89 7.49502 19.2407 5.67786 18.1251 4.13843C17.3106 4.58614 16.3713 4.95868 15.3447 5.24684Z" fill="url(#paint9_linear)"/>
<path d="M10.5859 10.5863V14.0635C11.8449 14.0971 13.0667 14.238 14.2071 14.4761C14.4984 13.2726 14.6692 11.9559 14.7072 10.5863H10.5859Z" fill="url(#paint10_linear)"/>
<path d="M9.41426 9.41436V5.93712C8.15525 5.9036 6.93351 5.76265 5.79307 5.52454C5.50182 6.72803 5.33094 8.04475 5.29297 9.41436H9.41426Z" fill="url(#paint11_linear)"/>
<path d="M4.97062 4.1204C5.18533 3.44916 5.43825 2.81881 5.72739 2.24054C6.06907 1.55722 6.45013 0.969026 6.86217 0.482056C5.39129 0.965393 4.0436 1.79045 2.91702 2.91702C2.81951 3.01453 2.72482 3.11412 2.63184 3.21487C3.32438 3.57569 4.11275 3.87948 4.97062 4.1204Z" fill="url(#paint12_linear)"/>
<path d="M15.0302 15.8802C14.8155 16.5515 14.5626 17.1818 14.2735 17.7601C13.9318 18.4434 13.5507 19.0316 13.1387 19.5186C14.6095 19.0353 15.9572 18.2103 17.0838 17.0837C17.1813 16.9862 17.276 16.8866 17.369 16.7858C16.6765 16.425 15.8881 16.1212 15.0302 15.8802Z" fill="url(#paint13_linear)"/>
<path d="M9.41426 10.5863H5.29297C5.33094 11.956 5.50182 13.2727 5.79307 14.4761C6.93347 14.238 8.15525 14.0971 9.41426 14.0635V10.5863Z" fill="url(#paint14_linear)"/>
<path d="M8.31483 19.3231C8.67315 19.6262 9.04109 19.8304 9.41402 19.9352V15.2357C8.2633 15.2678 7.15008 15.3939 6.1123 15.6049C6.30276 16.187 6.52411 16.7338 6.77527 17.2361C7.2265 18.1384 7.74445 18.8406 8.31483 19.3231Z" fill="url(#paint15_linear)"/>
<defs>
<linearGradient id="paint0_linear" x1="14.1274" y1="5.13681" x2="10.0428" y2="6.35459" gradientUnits="userSpaceOnUse">
<stop stop-color="#E96F67"/>
<stop offset="1" stop-color="#EE5050"/>
</linearGradient>
<linearGradient id="paint1_linear" x1="4.00024" y1="3.61243" x2="-0.731871" y2="4.78738" gradientUnits="userSpaceOnUse">
<stop stop-color="#E96F67"/>
<stop offset="1" stop-color="#EE5050"/>
</linearGradient>
<linearGradient id="paint2_linear" x1="4.00024" y1="10.0604" x2="-0.731871" y2="11.2354" gradientUnits="userSpaceOnUse">
<stop stop-color="#E96F67"/>
<stop offset="1" stop-color="#EE5050"/>
</linearGradient>
<linearGradient id="paint3_linear" x1="13.4231" y1="-0.402992" x2="9.99398" y2="0.274954" gradientUnits="userSpaceOnUse">
<stop stop-color="#E96F67"/>
<stop offset="1" stop-color="#EE5050"/>
</linearGradient>
<linearGradient id="paint4_linear" x1="6.26697" y1="15.5176" x2="2.1431" y2="16.8668" gradientUnits="userSpaceOnUse">
<stop stop-color="#E96F67"/>
<stop offset="1" stop-color="#EE5050"/>
</linearGradient>
<linearGradient id="paint5_linear" x1="8.94947" y1="-0.402992" x2="5.52035" y2="0.274955" gradientUnits="userSpaceOnUse">
<stop stop-color="#E96F67"/>
<stop offset="1" stop-color="#EE5050"/>
</linearGradient>
<linearGradient id="paint6_linear" x1="19.345" y1="10.0604" x2="14.6129" y2="11.2354" gradientUnits="userSpaceOnUse">
<stop stop-color="#E96F67"/>
<stop offset="1" stop-color="#EE5050"/>
</linearGradient>
<linearGradient id="paint7_linear" x1="16.7728" y1="0.1194" x2="12.649" y2="1.46865" gradientUnits="userSpaceOnUse">
<stop stop-color="#E96F67"/>
<stop offset="1" stop-color="#EE5050"/>
</linearGradient>
<linearGradient id="paint8_linear" x1="13.4231" y1="14.7673" x2="9.99398" y2="15.4452" gradientUnits="userSpaceOnUse">
<stop stop-color="#E96F67"/>
<stop offset="1" stop-color="#EE5050"/>
</linearGradient>
<linearGradient id="paint9_linear" x1="19.345" y1="3.61255" x2="14.6129" y2="4.78751" gradientUnits="userSpaceOnUse">
<stop stop-color="#E96F67"/>
<stop offset="1" stop-color="#EE5050"/>
</linearGradient>
<linearGradient id="paint10_linear" x1="14.1274" y1="10.1986" x2="10.0428" y2="11.4164" gradientUnits="userSpaceOnUse">
<stop stop-color="#E96F67"/>
<stop offset="1" stop-color="#EE5050"/>
</linearGradient>
<linearGradient id="paint11_linear" x1="8.8344" y1="5.13681" x2="4.74984" y2="6.35459" gradientUnits="userSpaceOnUse">
<stop stop-color="#E96F67"/>
<stop offset="1" stop-color="#EE5050"/>
</linearGradient>
<linearGradient id="paint12_linear" x1="6.26697" y1="0.1194" x2="2.14311" y2="1.46865" gradientUnits="userSpaceOnUse">
<stop stop-color="#E96F67"/>
<stop offset="1" stop-color="#EE5050"/>
</linearGradient>
<linearGradient id="paint13_linear" x1="16.7738" y1="15.5176" x2="12.6499" y2="16.8668" gradientUnits="userSpaceOnUse">
<stop stop-color="#E96F67"/>
<stop offset="1" stop-color="#EE5050"/>
</linearGradient>
<linearGradient id="paint14_linear" x1="8.8344" y1="10.1986" x2="4.74984" y2="11.4164" gradientUnits="userSpaceOnUse">
<stop stop-color="#E96F67"/>
<stop offset="1" stop-color="#EE5050"/>
</linearGradient>
<linearGradient id="paint15_linear" x1="8.94947" y1="14.7673" x2="5.52035" y2="15.4452" gradientUnits="userSpaceOnUse">
<stop stop-color="#E96F67"/>
<stop offset="1" stop-color="#EE5050"/>
</linearGradient>
</defs>
</svg>
