<svg width="20" height="20" viewBox="0 0 20 20" fill="none" xmlns="http://www.w3.org/2000/svg">
<path d="M19.5516 15.8057L16.4629 12.7167C15.8477 12.1039 14.8289 12.1226 14.1923 12.7594L12.6362 14.3152C12.5379 14.261 12.4361 14.2044 12.3291 14.1444C11.3465 13.5999 10.0015 12.8536 8.58628 11.4373C7.16683 10.018 6.41986 8.67103 5.87372 7.68774C5.81609 7.58357 5.76087 7.48313 5.70634 7.38775L6.75071 6.34494L7.26416 5.83085C7.90178 5.19306 7.91936 4.17455 7.30559 3.56003L4.2169 0.470661C3.60313 -0.142996 2.58387 -0.12438 1.94626 0.51341L1.07576 1.38891L1.09955 1.41252C0.807657 1.78497 0.563746 2.21453 0.382234 2.67776C0.214915 3.1187 0.110743 3.53946 0.0631095 3.9611C-0.344731 7.34219 1.20033 10.4323 5.39342 14.6254C11.1896 20.4211 15.8605 19.9833 16.062 19.9619C16.5009 19.9095 16.9214 19.8046 17.3489 19.6386C17.8081 19.4592 18.2374 19.2157 18.6096 18.9244L18.6286 18.9413L19.5105 18.0777C20.1468 17.4401 20.1651 16.4212 19.5516 15.8057Z" fill="url(#paint0_linear)"/>
<defs>
<linearGradient id="paint0_linear" x1="17.186" y1="-1.96655" x2="-2.80731" y2="3.67226" gradientUnits="userSpaceOnUse">
<stop stop-color="#E96F67"/>
<stop offset="1" stop-color="#EE5050"/>
</linearGradient>
</defs>
</svg>
