<svg width="16" height="20" viewBox="0 0 16 20" fill="none" xmlns="http://www.w3.org/2000/svg">
<path d="M8.25252 0.00416853C4.19093 -0.132709 0.855469 3.11898 0.855469 7.14965C0.855469 11.724 5.2453 15.0438 7.70579 19.818C7.83071 20.0604 8.17966 20.0608 8.30501 19.8184C10.5309 15.5225 14.3352 12.6419 15.0402 8.50332C15.7702 4.2207 12.5944 0.150548 8.25252 0.00416853ZM8.00505 10.8947C5.93677 10.8947 4.26005 9.21789 4.26005 7.14965C4.26005 5.08142 5.93681 3.40466 8.00505 3.40466C10.0733 3.40466 11.7501 5.08142 11.7501 7.14965C11.7501 9.21789 10.0733 10.8947 8.00505 10.8947Z" fill="url(#paint0_linear)"/>
<defs>
<linearGradient id="paint0_linear" x1="13.1344" y1="-1.99352" x2="-1.68741" y2="0.986407" gradientUnits="userSpaceOnUse">
<stop stop-color="#E96F67"/>
<stop offset="1" stop-color="#EE5050"/>
</linearGradient>
</defs>
</svg>
