<svg width="25" height="34" viewBox="0 0 25 34" fill="none" xmlns="http://www.w3.org/2000/svg">
<path fill-rule="evenodd" clip-rule="evenodd" d="M5.10809 12.6996C5.10809 8.68853 8.37146 5.42529 12.3825 5.42529C16.3936 5.42529 19.6569 8.68853 19.6569 12.6996C19.6569 16.7106 16.3936 19.9739 12.3825 19.9739C8.37146 19.9739 5.10809 16.7106 5.10809 12.6996ZM7.0647 12.6994C7.0647 15.6316 9.45033 18.0171 12.3825 18.0171C15.3148 18.0171 17.7003 15.6318 17.7003 12.6996C17.7003 9.7674 15.3147 7.3819 12.3825 7.3819C9.45033 7.3819 7.0647 9.76727 7.0647 12.6994Z" fill="white"/>
<path fill-rule="evenodd" clip-rule="evenodd" d="M0.0472412 12.6995C0.0472412 5.89781 5.5808 0.364258 12.3825 0.364258C19.1843 0.364258 24.7179 5.89781 24.7179 12.6994C24.7179 16.6056 21.4059 22.4601 19.4315 25.6022C18.1426 27.6535 16.7555 29.6149 15.5256 31.1253C13.5619 33.5364 12.8963 33.7382 12.3826 33.7382C11.8765 33.7382 11.1715 33.5365 9.2017 31.1267C7.97451 29.6254 6.58806 27.6628 5.29787 25.6006C3.33696 22.4663 0.0472412 16.6221 0.0472412 12.6995ZM12.3709 31.6688C13.2223 30.9604 15.545 28.1854 18.0751 24.0788C21.0532 19.2448 22.7613 15.0973 22.7611 12.6995C22.7611 6.97669 18.1053 2.32087 12.3825 2.32087C6.65967 2.32087 2.00385 6.97669 2.00398 12.6995C2.00398 15.1111 3.70271 19.2634 6.66463 24.0917C9.23001 28.2732 11.5151 30.9822 12.3709 31.6688Z" fill="white"/>
</svg>
