<svg width="22" height="22" viewBox="0 0 22 22" fill="none" xmlns="http://www.w3.org/2000/svg">
<path fill-rule="evenodd" clip-rule="evenodd" d="M16.6733 14.3936L20.9937 18.7138C21.3044 19.0245 21.4598 19.4025 21.4596 19.8473C21.4596 20.284 21.3 20.6619 20.981 20.9809C20.6622 21.2999 20.2841 21.4595 19.8475 21.4595C19.3936 21.4595 19.0163 21.2999 18.714 20.9809L14.3936 16.6732C12.8905 17.7143 11.2152 18.2352 9.3676 18.2352C8.1669 18.2352 7.0186 18.0022 5.92268 17.5362C4.82688 17.0699 3.88206 16.4403 3.08851 15.6465C2.29488 14.853 1.66506 13.9084 1.19909 12.8127C0.733029 11.7165 0.5 10.5685 0.5 9.36781C0.5 8.16702 0.733029 7.01873 1.19909 5.9228C1.6651 4.827 2.29488 3.88218 3.08851 3.08864C3.88206 2.29509 4.82671 1.66523 5.92268 1.19925C7.01847 0.733151 8.1669 0.500122 9.3676 0.500122C10.5684 0.500122 11.7167 0.733151 12.8128 1.19925C13.9086 1.66523 14.8531 2.29509 15.6466 3.08864C16.4402 3.88218 17.0701 4.82683 17.536 5.9228C18.0022 7.01859 18.2353 8.16702 18.2353 9.36781C18.2353 11.215 17.7145 12.8906 16.6733 14.3936ZM9.3676 15.0106C10.9213 15.0106 12.25 14.4584 13.3542 13.354C14.4585 12.2498 15.0108 10.9212 15.0108 9.36755C15.0108 7.81417 14.4586 6.48517 13.3542 5.38108C12.2499 4.27695 10.9211 3.72464 9.3676 3.72464C7.81422 3.72464 6.48522 4.27673 5.38113 5.38108C4.27696 6.48517 3.72469 7.81417 3.72469 9.36755C3.72469 10.9212 4.27682 12.2498 5.38113 13.354C6.48544 14.4583 7.81422 15.0106 9.3676 15.0106Z" fill="white"/>
</svg>
