<svg width="57" height="33" viewBox="0 0 57 33" fill="none" xmlns="http://www.w3.org/2000/svg">
<g clip-path="url(#clip0)">
<path d="M18.9286 29.635H18.4789L17.3011 13.14C17.2772 12.8221 17.1343 12.5249 16.901 12.3077C16.6676 12.0905 16.361 11.9692 16.0422 11.9681H15.5635V10.2855H16.4048C16.6279 10.2855 16.8419 10.1969 16.9996 10.0391C17.1574 9.88136 17.246 9.66738 17.246 9.44426V7.76169C17.246 7.53857 17.1574 7.32459 16.9996 7.16682C16.8419 7.00905 16.6279 6.92041 16.4048 6.92041H10.5158C10.2927 6.92041 10.0787 7.00905 9.9209 7.16682C9.76313 7.32459 9.6745 7.53857 9.6745 7.76169V9.44426C9.6745 9.66738 9.76313 9.88136 9.9209 10.0391C10.0787 10.1969 10.2927 10.2855 10.5158 10.2855H11.3571V11.9681H10.8784C10.5596 11.9693 10.2531 12.0906 10.0198 12.3078C9.78655 12.525 9.64373 12.8222 9.61981 13.14L8.4416 29.635H7.99193C7.88037 29.635 7.77338 29.6794 7.69449 29.7583C7.61561 29.8371 7.57129 29.9441 7.57129 30.0557V31.7383C7.57129 31.8498 7.61561 31.9568 7.69449 32.0357C7.77338 32.1146 7.88037 32.1589 7.99193 32.1589H18.9286C19.0402 32.1589 19.1472 32.1146 19.226 32.0357C19.3049 31.9568 19.3492 31.8498 19.3492 31.7383V30.0557C19.3492 29.9441 19.3049 29.8371 19.226 29.7583C19.1472 29.6794 19.0402 29.635 18.9286 29.635ZM16.7345 17.0158H10.186L10.2461 16.1745H16.6744L16.7345 17.0158ZM16.7947 17.8571L17.2751 24.5874H9.64547L10.1258 17.8571H16.7947ZM17.3352 25.4286L17.3954 26.2699H9.52517L9.58532 25.4286H17.3352ZM10.5158 7.76169H11.3571V8.60298H12.1983V7.76169H13.0396V8.60298H13.8809V7.76169H14.7222V8.60298H15.5635V7.76169H16.4048V9.44426H10.5158V7.76169ZM12.1983 10.2855H14.7222V11.9681H12.1983V10.2855ZM10.8784 12.8094H16.0422C16.1487 12.8091 16.2514 12.8493 16.3295 12.9219C16.4076 12.9944 16.4552 13.0939 16.4628 13.2002L16.6151 15.3332H10.3055L10.4577 13.2002C10.4653 13.0939 10.5129 12.9944 10.591 12.9219C10.6691 12.8493 10.7718 12.8091 10.8784 12.8094ZM9.46418 27.1112H17.4564L17.6364 29.635H9.28498L9.46418 27.1112ZM18.508 31.3176H8.41257V30.4763H18.508V31.3176Z" fill="url(#paint0_linear)"/>
<path d="M13.4604 23.7461C13.9595 23.7461 14.4475 23.598 14.8625 23.3207C15.2776 23.0434 15.6011 22.6492 15.7921 22.188C15.9831 21.7269 16.0331 21.2194 15.9357 20.7298C15.8383 20.2403 15.598 19.7905 15.245 19.4376C14.892 19.0846 14.4423 18.8442 13.9527 18.7469C13.4632 18.6495 12.9557 18.6995 12.4945 18.8905C12.0334 19.0815 11.6392 19.405 11.3619 19.82C11.0845 20.2351 10.9365 20.723 10.9365 21.2222C10.9372 21.8914 11.2033 22.5329 11.6765 23.0061C12.1496 23.4793 12.7912 23.7454 13.4604 23.7461ZM13.4604 19.5396C13.7931 19.5396 14.1185 19.6383 14.3952 19.8232C14.6718 20.0081 14.8875 20.2709 15.0149 20.5783C15.1422 20.8858 15.1755 21.2241 15.1106 21.5505C15.0457 21.8768 14.8854 22.1767 14.6501 22.412C14.4148 22.6473 14.115 22.8075 13.7886 22.8724C13.4622 22.9374 13.1239 22.904 12.8165 22.7767C12.509 22.6493 12.2463 22.4337 12.0614 22.157C11.8765 21.8803 11.7778 21.555 11.7778 21.2222C11.7778 20.776 11.9551 20.348 12.2706 20.0325C12.5862 19.7169 13.0141 19.5396 13.4604 19.5396Z" fill="url(#paint1_linear)"/>
</g>
<g clip-path="url(#clip1)">
<path d="M48.455 29.635H48.0053L46.8275 13.14C46.8036 12.8221 46.6607 12.5249 46.4274 12.3077C46.194 12.0905 45.8873 11.9692 45.5685 11.9681H45.0898V10.2855H45.9311C46.1542 10.2855 46.3682 10.1969 46.526 10.0391C46.6838 9.88136 46.7724 9.66738 46.7724 9.44426V7.76169C46.7724 7.53857 46.6838 7.32459 46.526 7.16682C46.3682 7.00905 46.1542 6.92041 45.9311 6.92041H40.0421C39.819 6.92041 39.605 7.00905 39.4473 7.16682C39.2895 7.32459 39.2009 7.53857 39.2009 7.76169V9.44426C39.2009 9.66738 39.2895 9.88136 39.4473 10.0391C39.605 10.1969 39.819 10.2855 40.0421 10.2855H40.8834V11.9681H40.4047C40.086 11.9693 39.7794 12.0906 39.5462 12.3078C39.3129 12.525 39.1701 12.8222 39.1462 13.14L37.968 29.635H37.5183C37.4067 29.635 37.2997 29.6794 37.2209 29.7583C37.142 29.8371 37.0977 29.9441 37.0977 30.0557V31.7383C37.0977 31.8498 37.142 31.9568 37.2209 32.0357C37.2997 32.1146 37.4067 32.1589 37.5183 32.1589H48.455C48.5665 32.1589 48.6735 32.1146 48.7524 32.0357C48.8313 31.9568 48.8756 31.8498 48.8756 31.7383V30.0557C48.8756 29.9441 48.8313 29.8371 48.7524 29.7583C48.6735 29.6794 48.5665 29.635 48.455 29.635ZM46.2609 17.0158H39.7124L39.7725 16.1745H46.2008L46.2609 17.0158ZM46.3211 17.8571L46.8014 24.5874H39.1718L39.6522 17.8571H46.3211ZM46.8616 25.4286L46.9217 26.2699H39.0515L39.1117 25.4286H46.8616ZM40.0421 7.76169H40.8834V8.60298H41.7247V7.76169H42.566V8.60298H43.4073V7.76169H44.2486V8.60298H45.0898V7.76169H45.9311V9.44426H40.0421V7.76169ZM41.7247 10.2855H44.2486V11.9681H41.7247V10.2855ZM40.4047 12.8094H45.5685C45.6751 12.8091 45.7778 12.8493 45.8559 12.9219C45.934 12.9944 45.9816 13.0939 45.9892 13.2002L46.1414 15.3332H39.8318L39.9841 13.2002C39.9917 13.0939 40.0393 12.9944 40.1174 12.9219C40.1955 12.8493 40.2982 12.8091 40.4047 12.8094ZM38.9905 27.1112H46.9827L47.1628 29.635H38.8113L38.9905 27.1112ZM48.0343 31.3176H37.9389V30.4763H48.0343V31.3176Z" fill="url(#paint2_linear)"/>
<path d="M42.9867 23.7461C43.4859 23.7461 43.9739 23.598 44.3889 23.3207C44.804 23.0434 45.1274 22.6492 45.3185 22.188C45.5095 21.7269 45.5595 21.2194 45.4621 20.7298C45.3647 20.2403 45.1243 19.7905 44.7714 19.4376C44.4184 19.0846 43.9687 18.8442 43.4791 18.7469C42.9895 18.6495 42.4821 18.6995 42.0209 18.8905C41.5597 19.0815 41.1656 19.405 40.8882 19.82C40.6109 20.2351 40.4629 20.723 40.4629 21.2222C40.4636 21.8914 40.7297 22.5329 41.2028 23.0061C41.676 23.4793 42.3176 23.7454 42.9867 23.7461ZM42.9867 19.5396C43.3195 19.5396 43.6448 19.6383 43.9215 19.8232C44.1982 20.0081 44.4139 20.2709 44.5412 20.5783C44.6686 20.8858 44.7019 21.2241 44.637 21.5505C44.572 21.8768 44.4118 22.1767 44.1765 22.412C43.9412 22.6473 43.6414 22.8075 43.315 22.8724C42.9886 22.9374 42.6503 22.904 42.3428 22.7767C42.0354 22.6493 41.7726 22.4337 41.5877 22.157C41.4029 21.8803 41.3042 21.555 41.3042 21.2222C41.3042 20.776 41.4814 20.348 41.797 20.0325C42.1125 19.7169 42.5405 19.5396 42.9867 19.5396Z" fill="url(#paint3_linear)"/>
</g>
<g clip-path="url(#clip2)">
<path d="M22.756 3.36508L23.2056 3.36508L24.3834 19.8601C24.4073 20.178 24.5502 20.4752 24.7836 20.6924C25.0169 20.9096 25.3236 21.0309 25.6424 21.032L26.1211 21.032L26.1211 22.7146L25.2798 22.7146C25.0567 22.7146 24.8427 22.8032 24.6849 22.961C24.5272 23.1188 24.4385 23.3327 24.4385 23.5559L24.4385 25.2384C24.4385 25.4616 24.5272 25.6755 24.6849 25.8333C24.8427 25.9911 25.0567 26.0797 25.2798 26.0797L31.1688 26.0797C31.3919 26.0797 31.6059 25.9911 31.7637 25.8333C31.9214 25.6755 32.0101 25.4616 32.0101 25.2384L32.0101 23.5559C32.0101 23.3327 31.9214 23.1188 31.7637 22.961C31.6059 22.8032 31.3919 22.7146 31.1688 22.7146L30.3275 22.7146L30.3275 21.032L30.8062 21.032C31.1249 21.0308 31.4315 20.9095 31.6648 20.6923C31.898 20.4751 32.0408 20.1779 32.0648 19.8601L33.243 3.36507L33.6926 3.36507C33.8042 3.36507 33.9112 3.32076 33.9901 3.24187C34.069 3.16299 34.1133 3.05599 34.1133 2.94443L34.1133 1.26187C34.1133 1.15031 34.069 1.04331 33.9901 0.96443C33.9112 0.885544 33.8042 0.841227 33.6926 0.841227L22.756 0.841228C22.6444 0.841228 22.5374 0.885545 22.4585 0.964431C22.3796 1.04332 22.3353 1.15031 22.3353 1.26187L22.3353 2.94443C22.3353 3.056 22.3796 3.16299 22.4585 3.24187C22.5374 3.32076 22.6444 3.36508 22.756 3.36508ZM24.95 15.9843L31.4986 15.9843L31.4384 16.8256L25.0102 16.8256L24.95 15.9843ZM24.8899 15.143L24.4095 8.41277L32.0391 8.41277L31.5587 15.143L24.8899 15.143ZM24.3494 7.57149L24.2892 6.73021L32.1594 6.73021L32.0992 7.57149L24.3494 7.57149ZM31.1688 25.2384L30.3275 25.2384L30.3275 24.3971L29.4862 24.3971L29.4862 25.2384L28.6449 25.2384L28.6449 24.3971L27.8037 24.3971L27.8037 25.2384L26.9624 25.2384L26.9624 24.3971L26.1211 24.3971L26.1211 25.2384L25.2798 25.2384L25.2798 23.5559L31.1688 23.5559L31.1688 25.2384ZM29.4862 22.7146L26.9624 22.7146L26.9624 21.032L29.4862 21.032L29.4862 22.7146ZM30.8062 20.1907L25.6424 20.1907C25.5358 20.191 25.4331 20.1508 25.355 20.0783C25.277 20.0057 25.2293 19.9063 25.2218 19.8L25.0695 17.6669L31.3791 17.6669L31.2268 19.8C31.2193 19.9063 31.1716 20.0057 31.0936 20.0783C31.0155 20.1508 30.9128 20.191 30.8062 20.1907ZM32.2204 5.88892L24.2282 5.88892L24.0482 3.36508L32.3996 3.36507L32.2204 5.88892ZM23.1766 1.68251L33.272 1.68251L33.272 2.52379L23.1766 2.52379L23.1766 1.68251Z" fill="url(#paint4_linear)"/>
<path d="M28.2242 9.25407C27.725 9.25407 27.2371 9.40209 26.822 9.67941C26.407 9.95673 26.0835 10.3509 25.8925 10.8121C25.7014 11.2733 25.6515 11.7807 25.7489 12.2703C25.8462 12.7599 26.0866 13.2096 26.4396 13.5625C26.7925 13.9155 27.2422 14.1559 27.7318 14.2533C28.2214 14.3506 28.7289 14.3007 29.19 14.1096C29.6512 13.9186 30.0454 13.5951 30.3227 13.1801C30.6 12.765 30.748 12.2771 30.748 11.7779C30.7474 11.1088 30.4813 10.4672 30.0081 9.99402C29.5349 9.52085 28.8934 9.25473 28.2242 9.25407ZM28.2242 13.4605C27.8914 13.4605 27.5661 13.3618 27.2894 13.1769C27.0127 12.992 26.7971 12.7292 26.6697 12.4218C26.5424 12.1144 26.509 11.776 26.574 11.4497C26.6389 11.1233 26.7991 10.8235 27.0344 10.5882C27.2698 10.3528 27.5696 10.1926 27.8959 10.1277C28.2223 10.0628 28.5606 10.0961 28.8681 10.2234C29.1755 10.3508 29.4383 10.5664 29.6232 10.8431C29.8081 11.1198 29.9068 11.4451 29.9068 11.7779C29.9068 12.2242 29.7295 12.6521 29.414 12.9677C29.0984 13.2832 28.6704 13.4605 28.2242 13.4605Z" fill="url(#paint5_linear)"/>
</g>
<defs>
<linearGradient id="paint0_linear" x1="17.6921" y1="4.40474" x2="5.19699" y2="6.04558" gradientUnits="userSpaceOnUse">
<stop stop-color="#E96F67"/>
<stop offset="1" stop-color="#EE5050"/>
</linearGradient>
<linearGradient id="paint1_linear" x1="15.274" y1="18.1952" x2="10.2263" y2="19.6156" gradientUnits="userSpaceOnUse">
<stop stop-color="#E96F67"/>
<stop offset="1" stop-color="#EE5050"/>
</linearGradient>
<linearGradient id="paint2_linear" x1="47.2185" y1="4.40474" x2="34.7234" y2="6.04558" gradientUnits="userSpaceOnUse">
<stop stop-color="#E96F67"/>
<stop offset="1" stop-color="#EE5050"/>
</linearGradient>
<linearGradient id="paint3_linear" x1="44.8004" y1="18.1952" x2="39.7527" y2="19.6156" gradientUnits="userSpaceOnUse">
<stop stop-color="#E96F67"/>
<stop offset="1" stop-color="#EE5050"/>
</linearGradient>
<linearGradient id="paint4_linear" x1="23.9925" y1="28.5954" x2="36.4876" y2="26.9545" gradientUnits="userSpaceOnUse">
<stop stop-color="#E96F67"/>
<stop offset="1" stop-color="#EE5050"/>
</linearGradient>
<linearGradient id="paint5_linear" x1="26.4106" y1="14.8049" x2="31.4582" y2="13.3845" gradientUnits="userSpaceOnUse">
<stop stop-color="#E96F67"/>
<stop offset="1" stop-color="#EE5050"/>
</linearGradient>
<clipPath id="clip0">
<rect width="26.9211" height="26.9211" fill="white" transform="translate(0 6.0791)"/>
</clipPath>
<clipPath id="clip1">
<rect width="26.9211" height="26.9211" fill="white" transform="translate(29.5264 6.0791)"/>
</clipPath>
<clipPath id="clip2">
<rect width="26.9211" height="26.9211" fill="white" transform="translate(41.6846 26.921) rotate(180)"/>
</clipPath>
</defs>
</svg>
