<svg width="28" height="27" viewBox="0 0 28 27" fill="none" xmlns="http://www.w3.org/2000/svg">
<path fill-rule="evenodd" clip-rule="evenodd" d="M23.3313 4.05721C25.476 6.20197 26.8718 8.8971 27.3768 11.8589C27.4506 12.2731 27.1669 12.6703 26.7527 12.7327C26.7481 12.7333 26.7436 12.7338 26.7391 12.7344C26.6992 12.7395 26.663 12.744 26.6222 12.744C26.2534 12.744 25.93 12.483 25.8675 12.1086C25.4193 9.4645 24.171 7.05306 22.2532 5.13526C20.3354 3.22314 17.924 1.96919 15.2799 1.52095C14.8601 1.44719 14.582 1.05569 14.6501 0.635813C14.7239 0.221614 15.1154 -0.0620836 15.5296 0.0116779C18.4914 0.51666 21.1865 1.91245 23.3313 4.05721ZM19.8531 15.7739C20.5567 15.7739 21.2206 16.0803 21.7709 16.6534L24.8859 19.7798C25.459 20.3472 25.7597 21.0224 25.7597 21.7259C25.7597 22.4238 25.4647 23.1047 24.903 23.6891C24.659 23.9444 24.4093 24.1884 24.1654 24.4211L24.0862 24.4976C23.7577 24.8153 23.4456 25.1171 23.1724 25.448C23.1696 25.4537 23.1653 25.458 23.1611 25.4622C23.1568 25.4665 23.1526 25.4707 23.1497 25.4764C22.2873 26.4126 21.1865 26.8836 19.8758 26.8836C19.7624 26.8836 19.6375 26.8779 19.5184 26.8722C17.5722 26.7474 15.8303 26.0154 14.5253 25.397C11.1096 23.7459 8.1194 21.4025 5.6342 18.435C3.5859 15.9725 2.2128 13.6746 1.29362 11.1951C0.919139 10.1851 0.431179 8.64177 0.567354 6.98498C0.658137 5.95799 1.07234 5.07285 1.7986 4.34658L3.72775 2.40042L3.7391 2.38907C4.30649 1.84437 4.97602 1.555 5.66824 1.555C6.36047 1.555 7.01865 1.84437 7.56902 2.38907C7.93783 2.7295 8.29529 3.09264 8.63573 3.44442C8.80594 3.62599 8.98751 3.80756 9.1634 3.98345L10.7124 5.53244C11.9039 6.72397 11.9039 8.26729 10.7124 9.45882C10.633 9.53826 10.5535 9.61911 10.4741 9.69996C10.3947 9.78082 10.3152 9.86167 10.2358 9.94111L10.1139 10.0647L10.1139 10.0648L10.1138 10.0649C9.73229 10.452 9.33975 10.8503 8.91942 11.2348C9.26554 12.0008 9.74215 12.7554 10.4514 13.6519C11.9153 15.4505 13.4416 16.8406 15.1211 17.9073C15.2856 18.0095 15.4785 18.1059 15.6828 18.2081C15.7309 18.2331 15.7796 18.2581 15.8288 18.2833C15.9247 18.3325 16.0222 18.3825 16.1197 18.435L17.9127 16.6477C18.4857 16.0747 19.1552 15.7739 19.8531 15.7739ZM23.2394 23.1943C23.435 23.0041 23.6205 22.8238 23.8022 22.6281C24.381 22.0266 24.381 21.4309 23.7965 20.8521L20.6702 17.7258L20.6588 17.7144C20.483 17.5215 20.1936 17.3002 19.8418 17.3002C19.4843 17.3002 19.1779 17.5329 18.985 17.7258L17.0445 19.6663C16.9481 19.7627 16.653 20.0578 16.1821 20.0578C15.9949 20.0578 15.8133 20.0124 15.6204 19.9159C15.609 19.9103 15.5977 19.9032 15.5863 19.8961C15.575 19.889 15.5636 19.8819 15.5523 19.8762C15.3877 19.7741 15.1948 19.6776 14.9906 19.5755L14.9905 19.5755C14.7636 19.462 14.5253 19.3429 14.2927 19.1953C12.4713 18.0435 10.8202 16.5399 9.25419 14.6108L9.24851 14.6051C8.38607 13.51 7.81868 12.5908 7.41582 11.6149L7.3988 11.5639C7.29667 11.2404 7.20589 10.7638 7.69385 10.2759C7.69751 10.2685 7.70354 10.2636 7.71041 10.2579C7.71418 10.2548 7.7182 10.2515 7.72222 10.2475C8.21585 9.80493 8.66977 9.35102 9.14638 8.86306C9.25583 8.75738 9.36277 8.64919 9.47055 8.54016L9.47056 8.54015L9.47063 8.54008L9.47097 8.53973L9.47108 8.53963C9.52515 8.48492 9.57943 8.43001 9.63434 8.3751C10.2358 7.77366 10.2358 7.21761 9.63434 6.61617L8.08535 5.06718C7.99528 4.97429 7.90521 4.8828 7.81583 4.79201L7.81579 4.79198C7.72501 4.69977 7.63495 4.60829 7.54632 4.5168C7.20021 4.15934 6.87112 3.82458 6.52501 3.50116L6.50799 3.48414C6.32642 3.30257 6.03705 3.08696 5.67959 3.08696C5.39022 3.08696 5.09517 3.22881 4.81715 3.48982L2.88233 5.42464C2.41139 5.89558 2.15606 6.44595 2.09932 7.1098C2.01421 8.14814 2.20713 9.24889 2.73481 10.6617C3.59157 12.9767 4.88524 15.1328 6.82006 17.4648C9.1634 20.262 11.9834 22.4692 15.1948 24.0239C16.3693 24.5856 17.9353 25.2438 19.6205 25.3516C19.7056 25.3573 19.7964 25.3573 19.8815 25.3573C20.7667 25.3573 21.4419 25.0679 22.0149 24.4551C22.3667 24.0409 22.7412 23.6721 23.11 23.3203L23.2394 23.1943ZM15.053 6.39488C16.5396 6.64454 17.89 7.34811 18.968 8.42616C20.0461 9.50421 20.744 10.8546 20.9993 12.3412C21.0617 12.7157 21.3851 12.9767 21.7539 12.9767C21.7947 12.9767 21.831 12.9721 21.8708 12.967L21.8844 12.9653C22.3043 12.8972 22.5823 12.5001 22.5142 12.0802C22.2078 10.2815 21.3567 8.64177 20.0574 7.34243C18.7581 6.0431 17.1183 5.192 15.3197 4.88561C14.8998 4.81752 14.5083 5.09555 14.4345 5.50975C14.3608 5.92394 14.6331 6.3268 15.053 6.39488Z" fill="white"/>
</svg>
