<svg width="33" height="33" viewBox="0 0 33 33" fill="none" xmlns="http://www.w3.org/2000/svg">
<path fill-rule="evenodd" clip-rule="evenodd" d="M27.9738 4.86327C30.5446 7.43414 32.2177 10.6647 32.823 14.215C32.9114 14.7115 32.5714 15.1875 32.0749 15.2624C32.0694 15.263 32.064 15.2637 32.0586 15.2644C32.0108 15.2705 31.9674 15.276 31.9185 15.276C31.4764 15.276 31.0887 14.9631 31.0139 14.5142C30.4766 11.3448 28.9803 8.45432 26.6815 6.15551C24.3827 3.86349 21.4922 2.36042 18.3228 1.82312C17.8195 1.73471 17.4863 1.26542 17.5679 0.762133C17.6563 0.265643 18.1256 -0.074418 18.6221 0.0139979C22.1723 0.619307 25.4029 2.29241 27.9738 4.86327ZM23.8046 18.9078C24.648 18.9078 25.4437 19.2751 26.1034 19.962L29.8373 23.7095C30.5242 24.3896 30.8847 25.1989 30.8847 26.0423C30.8847 26.8789 30.531 27.695 29.8577 28.3955C29.5652 28.7016 29.266 28.994 28.9735 29.2729L28.8787 29.3647L28.8787 29.3647L28.8786 29.3647C28.4849 29.7454 28.1108 30.1072 27.7833 30.5039C27.7799 30.5107 27.7748 30.5158 27.7697 30.5209C27.7646 30.526 27.7595 30.5311 27.7561 30.5379C26.7223 31.6601 25.4029 32.2246 23.8318 32.2246C23.6958 32.2246 23.5462 32.2178 23.4033 32.211C21.0705 32.0614 18.9825 31.184 17.4182 30.4427C13.3239 28.4635 9.73966 25.6546 6.76072 22.0976C4.30548 19.1459 2.65958 16.3914 1.55778 13.4192C1.1089 12.2086 0.523997 10.3587 0.687227 8.37271C0.796046 7.14169 1.29254 6.08069 2.16309 5.21014L4.47551 2.87732L4.48911 2.86371C5.16924 2.21079 5.97178 1.86393 6.80153 1.86393C7.63128 1.86393 8.42022 2.21079 9.07994 2.86371C9.52202 3.27179 9.9505 3.70707 10.3586 4.12874C10.5626 4.34637 10.7802 4.56401 10.9911 4.77484L10.9911 4.77486L12.8478 6.63159C14.2761 8.05985 14.2761 9.90979 12.8478 11.338C12.7526 11.4333 12.6574 11.5302 12.5622 11.6271C12.467 11.724 12.3717 11.8209 12.2765 11.9161L12.1304 12.0644L12.1304 12.0644C11.6731 12.5285 11.2025 13.006 10.6986 13.4668C11.1135 14.385 11.6848 15.2896 12.535 16.3642C14.2897 18.5201 16.1192 20.1864 18.1324 21.4651C18.3296 21.5875 18.5609 21.7031 18.8057 21.8255C18.8633 21.8555 18.9218 21.8855 18.9807 21.9157L18.9808 21.9158L18.9809 21.9158C19.0958 21.9748 19.2126 22.0347 19.3294 22.0976L21.4786 19.9552C22.1655 19.2683 22.9681 18.9078 23.8046 18.9078ZM27.8636 27.8024L27.8637 27.8024C28.0981 27.5744 28.3205 27.3582 28.5383 27.1237C29.232 26.4028 29.232 25.6886 28.5315 24.9949L24.784 21.2474L24.7704 21.2338C24.5595 21.0026 24.2127 20.7373 23.791 20.7373C23.3625 20.7373 22.9953 21.0162 22.764 21.2474L20.438 23.5735C20.3224 23.6891 19.9687 24.0427 19.4042 24.0427C19.1798 24.0427 18.9621 23.9883 18.7309 23.8727C18.7173 23.8659 18.7037 23.8574 18.6901 23.8489C18.6765 23.8404 18.6629 23.8319 18.6493 23.8251C18.452 23.7027 18.2208 23.5871 17.976 23.4646C17.7039 23.3286 17.4182 23.1858 17.1394 23.009C14.9562 21.6283 12.977 19.826 11.0999 17.5136L11.0931 17.5068C10.0593 16.1941 9.3792 15.0923 8.89631 13.9225L8.87591 13.8613C8.75348 13.4736 8.64466 12.9023 9.22957 12.3174C9.23396 12.3086 9.24119 12.3027 9.24942 12.2959L9.24945 12.2959C9.25396 12.2922 9.25877 12.2882 9.26358 12.2834C9.85528 11.7529 10.3994 11.2088 10.9707 10.6239C11.1019 10.4972 11.2301 10.3675 11.3593 10.2368L11.3594 10.2368C11.4244 10.171 11.4896 10.105 11.5556 10.039C12.2765 9.31808 12.2765 8.65156 11.5556 7.93063L9.69885 6.07389C9.591 5.96267 9.48314 5.85311 9.37611 5.7444L9.3758 5.74408L9.37576 5.74404C9.26694 5.6335 9.15898 5.52384 9.05274 5.41417C8.63786 4.9857 8.24339 4.58442 7.82852 4.19675L7.80811 4.17635C7.59047 3.95871 7.24361 3.70026 6.81513 3.70026C6.46827 3.70026 6.11461 3.8703 5.78135 4.18315L3.46213 6.50237C2.89763 7.06687 2.59157 7.72659 2.52356 8.52234C2.42154 9.76696 2.65278 11.0864 3.2853 12.7799C4.31228 15.5548 5.86296 18.1393 8.18218 20.9346C10.9911 24.2876 14.3713 26.9333 18.2208 28.7968C19.6286 29.4701 21.5058 30.2591 23.5258 30.3883C23.6278 30.3951 23.7366 30.3951 23.8386 30.3951C24.8996 30.3951 25.7089 30.0482 26.3959 29.3137C26.8175 28.8172 27.2664 28.3751 27.7085 27.9534C27.7608 27.9023 27.8125 27.8521 27.8636 27.8024ZM18.0508 7.66538C19.8327 7.96463 21.4514 8.80799 22.7436 10.1002C24.0358 11.3925 24.8724 13.0111 25.1785 14.7931C25.2533 15.2419 25.6409 15.5548 26.083 15.5548C26.1319 15.5548 26.1753 15.5493 26.2231 15.5433L26.2394 15.5412C26.7427 15.4596 27.076 14.9835 26.9944 14.4802C26.6271 12.3242 25.6069 10.3587 24.0494 8.80119C22.492 7.2437 20.5264 6.22352 18.3704 5.85625C17.8671 5.77464 17.3978 6.1079 17.3094 6.60439C17.221 7.10088 17.5475 7.58377 18.0508 7.66538Z" fill="white"/>
</svg>
