<svg width="30" height="25" viewBox="0 0 30 25" fill="none" xmlns="http://www.w3.org/2000/svg">
<path fill-rule="evenodd" clip-rule="evenodd" d="M16.6465 1.74881C13.5526 0.0527208 9.87983 -0.234654 6.55982 0.959587C4.37806 1.71363 2.51426 3.18126 1.26958 5.12533C0.152637 6.90707 -0.197328 9.0644 0.299084 11.1079C0.898254 13.335 2.31626 15.2538 4.26942 16.4804C3.91596 17.5145 3.56251 18.5507 3.23228 19.5903C3.98341 19.2002 4.72897 18.7996 5.4747 18.399L5.47486 18.3989L5.47523 18.3987C5.91642 18.1617 6.35767 17.9247 6.80017 17.6897C8.23756 18.1531 9.74368 18.3669 11.2532 18.3219C10.8665 17.1652 10.7613 15.9328 10.9462 14.7273C11.256 13.0553 12.1125 11.5337 13.381 10.4014C15.5484 8.48647 18.4082 7.54752 21.2889 7.80505C20.6886 5.21061 18.9959 3.00242 16.6465 1.74881ZM8.50838 6.45585C8.33773 7.15039 7.69924 7.62691 6.98485 7.59291C6.27046 7.55891 5.68012 7.0239 5.5762 6.31629C5.47228 5.60869 5.88386 4.92653 6.55831 4.68856C7.07589 4.5134 7.64774 4.63228 8.05263 4.99922C8.45751 5.36615 8.63192 5.92358 8.50838 6.45585ZM14.525 7.58914C15.2711 7.52044 15.8508 6.90961 15.8805 6.16096C15.8952 5.66386 15.6632 5.19164 15.2607 4.89951C14.8583 4.60738 14.3374 4.53313 13.8693 4.70118C13.1667 4.9614 12.7656 5.70188 12.9315 6.43252C13.0974 7.16316 13.7789 7.65784 14.525 7.58914Z" fill="#9DE60B"/>
<path fill-rule="evenodd" clip-rule="evenodd" d="M28.7246 13.2624C27.9458 11.5927 26.6178 10.2406 24.9623 9.43196C22.0352 7.97766 18.5934 7.9902 15.677 9.46579C13.6227 10.4626 12.1159 12.3186 11.5623 14.5339C11.2009 16.1879 11.4977 17.9176 12.3899 19.3565C13.7568 21.4711 15.9566 22.9065 18.4426 23.3062C20.2046 23.6183 22.0161 23.4985 23.7217 22.9573C24.3219 23.1919 24.8857 23.5107 25.4497 23.8295C25.8456 24.0533 26.2416 24.2772 26.6504 24.4721C26.3965 23.614 26.1234 22.762 25.8308 21.9161C26.976 21.1509 27.9143 20.1145 28.5621 18.8991C29.465 17.1412 29.5244 15.0692 28.7236 13.2624H28.7246ZM18.7531 13.9037C18.5576 14.421 18.0336 14.7373 17.4848 14.6692C16.936 14.6012 16.5051 14.1664 16.4419 13.6171C16.3787 13.0677 16.6996 12.5465 17.2186 12.3556C17.6579 12.2037 18.1454 12.3171 18.4726 12.6472C18.7998 12.9773 18.9088 13.4658 18.7531 13.9037ZM23.7194 14.6523C24.0937 14.5882 24.4161 14.3516 24.5897 14.0138L24.5902 14.0158C24.777 13.6262 24.7413 13.1665 24.4967 12.8103C24.2521 12.4542 23.8358 12.2559 23.4051 12.2904C22.8086 12.3798 22.3436 12.8537 22.2655 13.4518C22.3252 13.7796 22.4703 14.086 22.6861 14.34C22.9622 14.6008 23.345 14.7165 23.7194 14.6523Z" fill="#2E3233"/>
</svg>
