<svg width="31" height="31" viewBox="0 0 31 31" fill="none" xmlns="http://www.w3.org/2000/svg">
<path fill-rule="evenodd" clip-rule="evenodd" d="M29.7479 17.7693C29.2097 16.4187 28.5182 15.1435 27.6655 13.9603L27.6428 13.9293C27.5597 13.8168 27.4863 13.7174 27.5637 13.526C27.9738 12.5113 27.8408 11.5272 27.3169 10.5832C27.2813 10.519 27.2447 10.4553 27.2081 10.3916C27.0023 10.0331 26.797 9.67577 26.7741 9.24035C26.7349 8.50025 26.5471 7.78922 26.3548 7.07726C25.6836 4.59345 24.3463 2.6085 22.0444 1.36211C20.738 0.654787 19.3338 0.252107 17.8552 0.0894266C16.332 -0.0782023 14.8261 -0.012326 13.3264 0.305303C10.846 0.831385 9.02126 2.29365 7.60817 4.32097C6.68002 5.65334 6.0194 7.10231 5.82177 8.74365C5.80944 8.84601 5.81323 8.95176 5.81703 9.05782C5.82495 9.27896 5.83293 9.5015 5.69497 9.69778C5.51775 9.94891 5.41662 10.231 5.36621 10.5251C5.29043 10.9658 5.18899 11.3843 4.96291 11.7848C4.68827 12.2704 4.61435 12.8283 4.72662 13.3739C4.77518 13.6083 4.72507 13.7305 4.56239 13.8526C3.60085 14.5723 2.80569 15.4395 2.13765 16.4422C1.186 17.8698 0.624043 19.4172 0.532805 21.1309C0.496001 21.819 0.579197 22.4911 0.821362 23.1427C0.938579 23.4582 1.09353 23.606 1.4659 23.4978C1.7792 23.4072 2.04672 23.2664 2.28394 23.0577C2.77878 22.6234 3.18239 22.1175 3.44961 21.51C3.45719 21.4928 3.46242 21.4732 3.46768 21.4536C3.48386 21.3932 3.50015 21.3323 3.58538 21.3365C3.67993 21.3411 3.69555 21.4175 3.71119 21.4941L3.71528 21.5138C3.87549 22.2554 4.22033 22.9228 4.59023 23.5732C4.98487 24.2682 5.55054 24.8277 6.14188 25.3516C6.20617 25.4087 6.27887 25.4562 6.35199 25.5041C6.51348 25.6097 6.67701 25.7167 6.75641 25.9303C6.32961 25.9296 5.93497 25.9903 5.56167 26.1186C4.92394 26.3385 4.35703 26.6642 4.20951 27.4006C4.06848 28.1042 4.01992 28.7991 4.66322 29.3199C4.91775 29.5259 5.19951 29.6895 5.50322 29.8191C6.57425 30.2759 7.71208 30.4241 8.85487 30.4977C10.2677 30.5886 11.6866 30.6226 13.0719 30.2385C13.8748 30.0152 14.618 29.6537 15.3145 29.1975C15.3346 29.1842 15.3527 29.1657 15.3708 29.1473C15.4118 29.1054 15.4527 29.0635 15.518 29.0824C15.7721 29.156 16.0326 29.1607 16.2943 29.1654C16.6026 29.171 16.9126 29.1766 17.2159 29.2949C18.1159 29.6462 19.0459 29.9138 20.0056 30.0684C21.4298 30.2985 22.8593 30.4064 24.2965 30.2237C25.2704 30.0996 26.2249 29.8853 27.0779 29.3676C28.1746 28.7017 28.208 27.5456 27.1787 26.7975C26.6715 26.4288 26.1333 26.1214 25.5689 25.8542C25.5434 25.8421 25.5174 25.8307 25.4914 25.8193C25.3682 25.7652 25.2422 25.7099 25.147 25.578C26.2827 24.5345 26.8552 23.1523 27.4277 21.7401C27.7536 22.3439 28.071 22.917 28.4919 23.4205C28.94 23.9558 29.3303 23.9431 29.7698 23.4081C29.9449 23.1947 30.0732 22.9593 30.153 22.6921C30.6578 20.9988 30.3822 19.3621 29.7479 17.7693ZM17.2066 7.01912C17.1874 6.37149 17.3223 5.74303 17.6742 5.1684C18.3547 4.05685 19.5073 4.03303 20.1862 5.14303C20.7735 6.10458 20.7905 7.30891 20.4899 8.37128C20.3446 8.88468 20.1333 9.34582 19.6236 9.60654C18.9312 9.96066 18.2916 9.82056 17.8261 9.19489C17.3501 8.5553 17.1785 7.82448 17.2066 7.01912ZM14.9288 4.92561C14.2858 4.08901 13.3385 4.09334 12.6905 4.93087C11.8425 6.02664 11.8595 8.11984 12.7255 9.202C13.3255 9.952 14.1887 9.98943 14.8338 9.27345C15.3936 8.65273 15.552 7.88417 15.5755 7.13974C15.5634 6.29726 15.4156 5.55963 14.9288 4.92561ZM9.8059 12.1071C10.7353 11.4684 11.7813 11.0976 12.8684 10.8616C15.2588 10.3414 17.6554 10.2764 20.0436 10.8882C21.0129 11.1365 21.9516 11.4727 22.7953 12.0226C23.3186 12.3641 23.3127 12.4906 22.7888 12.8119C22.229 13.1549 21.6463 13.4388 20.9136 13.4366C20.9993 13.3417 21.0923 13.2602 21.1859 13.1782C21.381 13.0074 21.5785 12.8344 21.7168 12.5326C18.1549 14.9824 14.6678 15.1797 11.1636 12.6418C11.272 12.8167 11.3805 12.9912 11.5011 13.1854L11.5018 13.1866L11.5019 13.1867L11.664 13.4478C10.9852 13.2777 10.3774 13.1165 9.82322 12.8168C9.38528 12.579 9.39116 12.3922 9.8059 12.1071ZM12.7168 29.8674C13.263 29.7474 13.833 29.6085 14.2623 29.1891C14.2771 29.1746 14.2948 29.1612 14.3127 29.1476L14.3127 29.1476L14.3127 29.1476C14.3723 29.1023 14.4338 29.0557 14.394 28.9649C14.3657 28.9001 14.304 28.9023 14.2435 28.9046C14.2195 28.9055 14.1956 28.9064 14.1741 28.903C13.1823 28.7527 12.2016 28.5591 11.24 28.2622C9.88415 27.8438 8.57775 27.3053 7.45291 26.4421C6.86899 25.9937 6.35064 26.0156 5.76054 26.2831C5.52079 26.3917 5.29115 26.525 5.06297 26.6575L5.0393 26.6713C4.87013 26.769 4.74672 26.9227 4.65703 27.091C4.61744 27.1664 4.61157 27.2942 4.6493 27.3668C4.69216 27.4492 4.76708 27.4236 4.8415 27.3981C4.86267 27.3909 4.8838 27.3836 4.90415 27.3789C5.04093 27.3466 5.17958 27.3231 5.31809 27.2997C5.36655 27.2915 5.41499 27.2833 5.46332 27.2747C5.34817 27.3891 5.22885 27.4912 5.11129 27.5919C4.98067 27.7037 4.85222 27.8136 4.73404 27.9365C4.37188 28.3126 4.36538 28.6281 4.72786 28.9946C5.21714 29.49 5.86198 29.7124 6.50342 29.8804C8.57002 30.4222 10.6508 30.3235 12.7168 29.8674ZM25.5763 26.1194L25.5763 26.1195C25.9048 26.2753 26.2506 26.4394 26.6269 26.7412L26.5426 26.7476C26.213 26.7723 25.9262 26.7938 25.6784 26.9518C25.6255 26.9846 25.5497 27.048 25.5531 27.0922C25.5602 27.1867 25.633 27.181 25.7013 27.1756C25.7099 27.175 25.7184 27.1743 25.7267 27.1738C25.733 27.1735 25.7392 27.1733 25.7452 27.1732C25.861 27.1731 25.9769 27.1712 26.0929 27.1692L26.0932 27.1692H26.0932H26.0932H26.0933H26.0933H26.0933C26.3334 27.1651 26.5735 27.161 26.8128 27.1735C27.47 27.2073 27.8016 27.7089 27.556 28.3154C27.2347 29.1096 26.5057 29.3979 25.7736 29.6292C23.4599 30.361 21.1648 30.1318 18.886 29.4359C18.8359 29.4205 18.7839 29.4087 18.7318 29.3968L18.7317 29.3967C18.5228 29.349 18.3125 29.3009 18.2152 29.0264C20.6016 28.6488 22.7099 27.7154 24.5124 26.1334C24.8455 25.8409 25.0094 25.843 25.383 26.0267C25.4468 26.058 25.5112 26.0885 25.5763 26.1194L25.5763 26.1194L25.5763 26.1194L25.5763 26.1194ZM24.8003 24.7163C25.6298 23.6465 26.1587 22.4407 26.2391 21.0706C26.3365 19.4206 25.7851 17.966 24.8742 16.6207C24.7654 16.4605 24.7091 16.4704 24.5628 16.5678C23.9739 16.9609 23.3551 17.3026 22.7142 17.6066C20.5527 18.6331 18.2944 19.2171 15.8845 19.1595C14.8716 19.1354 13.8516 19.047 12.8591 18.7689L12.8804 19.2897L12.9398 21.7955C12.9562 22.3485 12.534 22.8325 12.1617 22.8928C11.2493 23.0413 10.3208 23.0877 9.46012 22.7144C8.83662 22.4438 8.38538 21.9681 8.30126 21.2141C8.16054 19.9488 8.29476 18.699 8.45064 17.4498C8.47322 17.2732 8.43734 17.2129 8.29909 17.1396C8.22107 17.0983 8.14222 17.0578 8.0633 17.0173L8.06328 17.0173L8.06327 17.0173C7.7774 16.8706 7.49049 16.7233 7.23796 16.5316C6.93796 16.303 6.81147 16.4165 6.68342 16.6813C6.65892 16.7326 6.63179 16.7827 6.60467 16.8328C6.57361 16.8902 6.54256 16.9475 6.51549 17.0066C5.79827 18.5765 5.66188 20.2166 5.99775 21.8905C6.36889 23.7403 7.48755 25.1048 8.9192 26.2655C9.65466 26.8615 10.4789 27.2849 11.3356 27.6489C12.714 28.2341 14.1751 28.5007 15.6568 28.6445L15.7871 28.6572C16.7095 28.7478 17.6398 28.8391 18.5566 28.6306C21.0912 28.0553 23.2004 26.7801 24.8003 24.7163ZM11.5994 20.0407L11.5713 19.0983C11.5755 19.0576 11.5733 19.009 11.571 18.9579V18.9579V18.9579C11.5634 18.7897 11.5545 18.5937 11.7701 18.5577C12.1178 18.4995 12.4409 18.7473 12.4744 19.098C12.5575 19.9723 12.6138 20.8559 12.5823 21.7429C12.5671 22.17 12.3578 22.4267 11.8768 22.4515C11.1899 22.4877 10.5064 22.5109 9.83219 22.3609C8.8861 22.1496 8.55177 21.6863 8.52363 20.6144C8.50158 19.787 8.65915 18.9855 8.81683 18.1835L8.81683 18.1835L8.81684 18.1834L8.81684 18.1834C8.8516 18.0066 8.88636 17.8298 8.9192 17.6527C8.94827 17.4956 9.00827 17.5012 9.13755 17.5562C9.26296 17.61 9.38785 17.6652 9.51275 17.7205L9.51307 17.7206C9.98561 17.9296 10.4584 18.1387 10.9607 18.27C11.1263 18.3131 11.1267 18.4174 11.1272 18.5324C11.1273 18.5505 11.1274 18.5687 11.1281 18.5871C11.1516 19.2186 11.2335 19.8412 11.4472 20.4396C11.4682 20.4984 11.4952 20.5555 11.5299 20.6289L11.5299 20.629L11.5299 20.629C11.5529 20.6778 11.5793 20.7337 11.6096 20.8021L11.5994 20.0407ZM25.4319 15.7074C26.4432 15.0783 27.1444 14.1919 27.3649 12.9771C27.4796 12.3433 27.4156 11.6407 27.1719 11.2732C26.3619 13.4648 25.1591 15.3041 22.8352 16.1441C24.5251 15.1349 25.9242 13.886 26.3965 11.9274C26.3637 11.9548 26.3271 11.9843 26.2883 12.0156L26.2882 12.0157C26.2043 12.0834 26.1099 12.1596 26.0198 12.241C23.9532 14.1143 21.496 15.1667 18.7577 15.476C16.0657 15.7804 13.4009 15.498 10.8299 14.5909C8.79641 13.8746 7.03724 12.763 5.80476 10.9358C5.80051 10.9295 5.78202 10.9328 5.75873 10.937L5.75871 10.937L5.75867 10.937C5.74645 10.9391 5.73291 10.9416 5.7194 10.9429C5.686 11.6336 5.65415 12.3245 6.01291 12.9573C6.24613 13.3692 6.48621 13.7773 6.72631 14.1854L6.72632 14.1855L6.72634 14.1855C6.83232 14.3656 6.93832 14.5458 7.04373 14.7263C6.13631 14.0524 5.48652 13.2146 5.29693 12.052C4.67435 12.8645 4.76621 13.7775 5.44384 14.6509C6.37074 15.8462 7.64621 16.5712 8.98848 17.1761C10.597 17.9011 12.2712 18.4071 14.034 18.6322C15.5136 18.8215 16.979 18.8323 18.445 18.5636C20.973 18.0996 23.2682 17.054 25.4319 15.7074ZM18.0745 7.5418C18.2201 7.57053 18.2514 7.4453 18.2791 7.33492L18.2792 7.3346C18.2822 7.3227 18.2851 7.31097 18.2882 7.29963C18.2954 7.27265 18.3023 7.24467 18.3093 7.21632L18.3093 7.21623C18.3599 7.01093 18.4152 6.78632 18.6581 6.78252C18.8832 6.7795 18.9168 7.00638 18.9438 7.18891C18.9472 7.21197 18.9505 7.23432 18.954 7.25541C18.9794 7.4051 19.0685 7.56252 19.2327 7.53963C19.4412 7.51056 19.4173 6.45468 18.882 6.27252C18.3887 6.08664 17.904 6.56293 17.9164 7.23314L17.9165 7.23776C17.9189 7.35747 17.9221 7.51218 18.0745 7.5418ZM15.1577 7.76293C15.0615 7.96304 14.9152 8.1353 14.6575 8.11613C14.4098 8.09664 14.279 7.92407 14.1828 7.71716C14.0882 7.51458 14.0702 7.29932 14.0656 7.08128C14.0588 6.77541 14.1083 6.48221 14.2997 6.23324C14.5409 5.91932 14.8904 5.93541 15.1011 6.28211C15.3908 6.75994 15.3977 7.26376 15.1577 7.76293Z" fill="white"/>
</svg>
