<svg width="31" height="30" viewBox="0 0 31 30" fill="none" xmlns="http://www.w3.org/2000/svg">
<path fill-rule="evenodd" clip-rule="evenodd" d="M0.5 0H9.875V9.375H0.5V0ZM2.375 7.5H8V1.875H2.375V7.5ZM4.25 3.75H6.125V5.625H4.25V3.75ZM21.125 9.375H30.5V0H21.125V9.375ZM28.625 7.5H23V1.875H28.625V7.5ZM24.875 3.75H26.75V5.625H24.875V3.75ZM0.5 30H9.875V20.625H0.5V30ZM2.375 22.5H8V28.125H2.375V22.5ZM4.25 24.375H6.125V26.25H4.25V24.375ZM19.25 0H15.5V1.875H19.25V0ZM15.5 7.5H17.375V5.625H19.25V3.75H13.625V1.875H11.75V3.75V4.6875V5.625H15.5V7.5ZM13.625 7.5H11.75V9.375H13.625V7.5ZM19.25 9.375H17.375V11.25H11.75V13.125H19.25V9.375ZM4.25 16.875H2.375V18.75H0.5V11.25H2.375V15H4.25V16.875ZM4.25 11.25H6.125V13.125H4.25V11.25ZM15.5 16.875V18.75H11.75V16.875H9.875H8.9375H8V18.75H6.125V15H8V11.25H9.875V15H13.625V16.875H15.5ZM17.375 15H19.25V18.75H17.375V15ZM11.75 20.625H17.375V26.25H21.125V28.125H17.375V30H11.75V28.125H15.5V22.5H11.75V20.625ZM11.75 24.375H13.625V26.25H11.75V24.375ZM21.125 20.625H19.25V24.375H21.125V20.625ZM28.625 24.375H23V30H24.875V26.25H28.625V24.375ZM30.5 30V28.125H26.75V30H30.5ZM28.625 20.625H30.5V22.5H28.625V20.625ZM24.875 22.5H23V18.75H21.125V16.875H24.875V22.5ZM26.75 13.125H24.875V11.25H23V13.125H21.125V15H28.625V13.125H30.5V11.25H26.75V13.125ZM30.5 16.875H26.75V18.75H30.5V16.875Z" fill="white"/>
</svg>
