<svg width="31" height="31" viewBox="0 0 31 31" fill="none" xmlns="http://www.w3.org/2000/svg">
<g clip-path="url(#clip0)">
<path d="M30.545 28.8767H29.544V16.1976H30.545C30.7111 16.1976 30.8639 16.1071 30.9439 15.9616C31.0238 15.816 31.018 15.6384 30.9289 15.4983L27.5317 10.1598C27.4481 10.0285 27.3034 9.94901 27.1478 9.94901H18.1151L15.955 7.78902V6.00582H20.3532C20.521 6.00582 20.6753 5.91349 20.7544 5.76552C20.8336 5.61762 20.8249 5.43805 20.7318 5.29846L19.9294 4.09486L20.7319 2.89126C20.825 2.75167 20.8336 2.5721 20.7545 2.4242C20.6753 2.27624 20.521 2.1839 20.3532 2.1839H15.955V1.66825C15.955 1.41697 15.7513 1.21326 15.5 1.21326C15.2487 1.21326 15.045 1.41697 15.045 1.66825V7.78902L12.885 9.94907H3.85226C3.69672 9.94907 3.55191 10.0285 3.46837 10.1598L0.071111 15.4984C-0.0180064 15.6384 -0.0237696 15.816 0.0561267 15.9616C0.136084 16.1071 0.28896 16.1976 0.455001 16.1976H1.45598V28.8767H0.455001C0.203725 28.8767 1.12088e-05 29.0804 1.12088e-05 29.3316C1.12088e-05 29.5829 0.203725 29.7866 0.455001 29.7866H30.545C30.7963 29.7866 31 29.5829 31 29.3316C31 29.0804 30.7963 28.8767 30.545 28.8767ZM26.898 10.859L29.7162 15.2876H23.4536L19.025 10.859H26.898ZM19.5031 3.09388L19.004 3.84249C18.9021 3.99531 18.9021 4.19441 19.004 4.34723L19.5031 5.09584H15.955V3.09388H19.5031ZM4.10202 10.859H11.9749L7.54636 15.2876H1.28387L4.10202 10.859ZM2.36596 16.1976H7.73472C7.74977 16.1976 7.76481 16.1968 7.77986 16.1953C7.78629 16.1947 7.7926 16.1935 7.79897 16.1926C7.80728 16.1914 7.81559 16.1904 7.8239 16.1887C7.8313 16.1873 7.83846 16.1852 7.84574 16.1834C7.85284 16.1816 7.86 16.18 7.86703 16.1779C7.87419 16.1758 7.88117 16.173 7.88821 16.1705C7.89518 16.1681 7.90216 16.1658 7.90908 16.1629C7.91569 16.1602 7.922 16.157 7.92843 16.1539C7.9354 16.1506 7.9425 16.1475 7.94936 16.1438C7.95561 16.1405 7.96149 16.1366 7.96756 16.1331C7.97423 16.1291 7.98102 16.1253 7.98752 16.1209C7.99431 16.1164 8.00068 16.1113 8.00717 16.1064C8.01251 16.1024 8.01803 16.0987 8.02319 16.0944C8.03483 16.0849 8.046 16.0748 8.05661 16.0641L15.5 8.62086L22.9434 16.0642C22.954 16.0748 22.9652 16.0849 22.9768 16.0945C22.982 16.0987 22.9875 16.1024 22.9928 16.1064C22.9993 16.1113 23.0058 16.1164 23.0126 16.121C23.019 16.1253 23.0257 16.129 23.0323 16.133C23.0385 16.1367 23.0444 16.1405 23.0507 16.1439C23.0575 16.1475 23.0645 16.1506 23.0715 16.1539C23.078 16.157 23.0844 16.1602 23.0911 16.163C23.0979 16.1658 23.1048 16.168 23.1116 16.1705C23.1187 16.173 23.1258 16.1758 23.133 16.178C23.14 16.1801 23.147 16.1816 23.154 16.1834C23.1614 16.1853 23.1687 16.1873 23.1762 16.1888C23.1842 16.1904 23.1923 16.1914 23.2003 16.1925C23.2069 16.1935 23.2135 16.1947 23.2202 16.1954C23.2351 16.1968 23.2501 16.1976 23.2651 16.1976H28.6341V28.8767H18.8669V22.5371C18.8669 21.751 18.2274 21.1115 17.4413 21.1115H13.5587C12.7726 21.1115 12.1331 21.751 12.1331 22.5371V28.8767H2.36596V16.1976ZM17.957 23.0528H13.0431V22.5371C13.0431 22.2528 13.2744 22.0215 13.5587 22.0215H17.4413C17.7256 22.0215 17.957 22.2528 17.957 22.5371V23.0528ZM13.0431 23.9628H15.045V28.8767H13.0431V23.9628ZM15.955 23.9628H17.957V28.8767H15.955V23.9628Z" fill="url(#paint0_linear)"/>
<path d="M15.4997 19.5949C17.3563 19.5949 18.8667 18.0846 18.8667 16.228C18.8667 14.3715 17.3563 12.8611 15.4997 12.8611C13.6432 12.8611 12.1328 14.3715 12.1328 16.228C12.1328 18.0846 13.6432 19.5949 15.4997 19.5949ZM15.4997 13.7711C16.8545 13.7711 17.9567 14.8732 17.9567 16.228C17.9567 17.5828 16.8545 18.685 15.4997 18.685C14.145 18.685 13.0428 17.5828 13.0428 16.228C13.0428 14.8732 14.145 13.7711 15.4997 13.7711Z" fill="url(#paint1_linear)"/>
<path d="M15.4998 16.683C15.7511 16.683 15.9548 16.4793 15.9548 16.228V14.772C15.9548 14.5207 15.7511 14.317 15.4998 14.317C15.2486 14.317 15.0448 14.5207 15.0448 14.772V15.773H14.0439C13.7926 15.773 13.5889 15.9767 13.5889 16.228C13.5889 16.4793 13.7926 16.683 14.0439 16.683H15.4998Z" fill="url(#paint2_linear)"/>
<path d="M10.6463 23.5381H8.21964C7.96836 23.5381 7.76465 23.7418 7.76465 23.9931V26.905C7.76465 27.1563 7.96836 27.36 8.21964 27.36H10.6463C10.8975 27.36 11.1012 27.1563 11.1012 26.905V23.9931C11.1012 23.7418 10.8975 23.5381 10.6463 23.5381ZM10.1913 24.4481V24.9941H8.67463V24.4481H10.1913ZM8.67463 26.45V25.904H10.1913V26.45H8.67463Z" fill="url(#paint3_linear)"/>
<path d="M6.27906 23.5381H3.85245C3.60118 23.5381 3.39746 23.7418 3.39746 23.9931V26.905C3.39746 27.1563 3.60118 27.36 3.85245 27.36H6.27906C6.53034 27.36 6.73405 27.1563 6.73405 26.905V23.9931C6.73405 23.7418 6.53034 23.5381 6.27906 23.5381ZM5.82407 24.4481V24.9941H4.30744V24.4481H5.82407ZM4.30744 26.45V25.904H5.82407V26.45H4.30744Z" fill="url(#paint4_linear)"/>
<path d="M10.4946 17.7142H8.3713C8.03679 17.7142 7.76465 17.9864 7.76465 18.3209V21.5665C7.76465 21.8178 7.96836 22.0215 8.21964 22.0215H10.6463C10.8975 22.0215 11.1012 21.8178 11.1012 21.5665V18.3209C11.1012 17.9864 10.8291 17.7142 10.4946 17.7142ZM10.1913 18.6242V19.6555H8.67463V18.6242H10.1913ZM8.67463 21.1115V20.5655H10.1913V21.1115H8.67463Z" fill="url(#paint5_linear)"/>
<path d="M6.1274 17.7142H4.00411C3.66961 17.7142 3.39746 17.9864 3.39746 18.3209V21.5665C3.39746 21.8178 3.60118 22.0215 3.85245 22.0215H6.27906C6.53034 22.0215 6.73405 21.8178 6.73405 21.5665V18.3209C6.73405 17.9864 6.46191 17.7142 6.1274 17.7142ZM5.82407 18.6242V19.6555H4.30744V18.6242H5.82407ZM4.30744 21.1115V20.5655H5.82407V21.1115H4.30744Z" fill="url(#paint6_linear)"/>
<path d="M24.7206 27.36H27.1472C27.3985 27.36 27.6022 27.1563 27.6022 26.905V23.9931C27.6022 23.7418 27.3985 23.5381 27.1472 23.5381H24.7206C24.4693 23.5381 24.2656 23.7418 24.2656 23.9931V26.905C24.2656 27.1563 24.4693 27.36 24.7206 27.36ZM25.1756 26.45V25.904H26.6922V26.45H25.1756ZM26.6922 24.4481V24.9941H25.1756V24.4481H26.6922Z" fill="url(#paint7_linear)"/>
<path d="M20.3534 27.36H22.78C23.0313 27.36 23.235 27.1563 23.235 26.905V23.9931C23.235 23.7418 23.0313 23.5381 22.78 23.5381H20.3534C20.1022 23.5381 19.8984 23.7418 19.8984 23.9931V26.905C19.8984 27.1563 20.1022 27.36 20.3534 27.36ZM20.8084 26.45V25.904H22.3251V26.45H20.8084ZM22.3251 24.4481V24.9941H20.8084V24.4481H22.3251Z" fill="url(#paint8_linear)"/>
<path d="M24.7206 22.0215H27.1472C27.3985 22.0215 27.6022 21.8178 27.6022 21.5665V18.3209C27.6022 17.9864 27.3301 17.7142 26.9956 17.7142H24.8723C24.5378 17.7142 24.2656 17.9864 24.2656 18.3209V21.5665C24.2656 21.8178 24.4693 22.0215 24.7206 22.0215ZM25.1756 21.1115V20.5655H26.6922V21.1115H25.1756ZM26.6922 18.6242V19.6555H25.1756V18.6242H26.6922Z" fill="url(#paint9_linear)"/>
<path d="M20.3534 22.0215H22.78C23.0313 22.0215 23.235 21.8178 23.235 21.5665V18.3209C23.235 17.9864 22.9629 17.7142 22.6284 17.7142H20.5051C20.1706 17.7142 19.8984 17.9864 19.8984 18.3209V21.5665C19.8984 21.8178 20.1022 22.0215 20.3534 22.0215ZM20.8084 21.1115V20.5655H22.3251V21.1115H20.8084ZM22.3251 18.6242V19.6555H20.8084V18.6242H22.3251Z" fill="url(#paint10_linear)"/>
</g>
<defs>
<linearGradient id="paint0_linear" x1="26.6384" y1="-1.63482" x2="-3.96407" y2="7.70795" gradientUnits="userSpaceOnUse">
<stop stop-color="#E96F67"/>
<stop offset="1" stop-color="#EE5050"/>
</linearGradient>
<linearGradient id="paint1_linear" x1="17.9192" y1="12.1899" x2="11.1854" y2="14.0848" gradientUnits="userSpaceOnUse">
<stop stop-color="#E96F67"/>
<stop offset="1" stop-color="#EE5050"/>
</linearGradient>
<linearGradient id="paint2_linear" x1="15.6219" y1="14.0812" x2="13.256" y2="14.747" gradientUnits="userSpaceOnUse">
<stop stop-color="#E96F67"/>
<stop offset="1" stop-color="#EE5050"/>
</linearGradient>
<linearGradient id="paint3_linear" x1="10.6318" y1="23.1571" x2="7.23593" y2="23.9914" gradientUnits="userSpaceOnUse">
<stop stop-color="#E96F67"/>
<stop offset="1" stop-color="#EE5050"/>
</linearGradient>
<linearGradient id="paint4_linear" x1="6.2646" y1="23.1571" x2="2.86874" y2="23.9914" gradientUnits="userSpaceOnUse">
<stop stop-color="#E96F67"/>
<stop offset="1" stop-color="#EE5050"/>
</linearGradient>
<linearGradient id="paint5_linear" x1="10.6318" y1="17.2849" x2="7.19433" y2="18.0342" gradientUnits="userSpaceOnUse">
<stop stop-color="#E96F67"/>
<stop offset="1" stop-color="#EE5050"/>
</linearGradient>
<linearGradient id="paint6_linear" x1="6.2646" y1="17.2849" x2="2.82714" y2="18.0342" gradientUnits="userSpaceOnUse">
<stop stop-color="#E96F67"/>
<stop offset="1" stop-color="#EE5050"/>
</linearGradient>
<linearGradient id="paint7_linear" x1="27.1328" y1="23.1571" x2="23.7369" y2="23.9914" gradientUnits="userSpaceOnUse">
<stop stop-color="#E96F67"/>
<stop offset="1" stop-color="#EE5050"/>
</linearGradient>
<linearGradient id="paint8_linear" x1="22.7656" y1="23.1571" x2="19.3697" y2="23.9914" gradientUnits="userSpaceOnUse">
<stop stop-color="#E96F67"/>
<stop offset="1" stop-color="#EE5050"/>
</linearGradient>
<linearGradient id="paint9_linear" x1="27.1328" y1="17.2849" x2="23.6953" y2="18.0342" gradientUnits="userSpaceOnUse">
<stop stop-color="#E96F67"/>
<stop offset="1" stop-color="#EE5050"/>
</linearGradient>
<linearGradient id="paint10_linear" x1="22.7656" y1="17.2849" x2="19.3281" y2="18.0342" gradientUnits="userSpaceOnUse">
<stop stop-color="#E96F67"/>
<stop offset="1" stop-color="#EE5050"/>
</linearGradient>
<clipPath id="clip0">
<rect width="31" height="31" fill="white"/>
</clipPath>
</defs>
</svg>
