<svg width="34" height="26" viewBox="0 0 34 26" fill="none" xmlns="http://www.w3.org/2000/svg">
<path d="M3.73383 17.8473C3.73383 21.3322 8.67753 24.158 14.7805 24.158C20.8834 24.158 25.8249 21.3322 25.8249 17.8473C25.8249 14.3624 20.8812 11.5345 14.7805 11.5345C8.67974 11.5345 3.73383 14.3624 3.73383 17.8473Z" fill="white"/>
<path fill-rule="evenodd" clip-rule="evenodd" d="M24.5043 11.5867C24.263 12.1733 24.5792 12.27 25.0386 12.3973L25.0342 12.3957C26.9025 12.964 28.9808 14.3284 28.9808 16.7348C28.9808 20.7184 23.0958 25.736 14.2382 25.736C7.48297 25.736 0.577942 22.5426 0.577942 17.2913C0.577942 14.5459 2.36148 11.3708 5.42072 8.37667C9.52209 4.37969 14.3054 2.55765 16.1032 4.31361C16.8986 5.08658 16.9735 6.42518 16.4635 8.02322C16.1974 8.82896 17.239 8.38366 17.239 8.38366C20.5549 7.03109 23.4456 6.95106 24.5043 8.42394C25.0771 9.20873 25.0237 10.3094 24.5043 11.5867ZM3.86466 18.5451C4.21333 21.9979 8.86772 24.3716 14.2575 23.8554C19.6466 23.3462 23.7337 20.113 23.3856 16.6623C23.0375 13.2116 18.3831 10.8385 12.9933 11.3568C7.6036 11.8752 3.51599 15.0922 3.86466 18.5451Z" fill="#E6162D"/>
<path d="M31.2589 3.44826C28.9761 1.0693 25.515 0.0168579 22.1817 0.688094C21.6998 0.785029 21.3096 1.11615 21.158 1.55672C21.0064 1.9973 21.1165 2.4804 21.4468 2.82404C21.777 3.16768 22.2774 3.31966 22.7592 3.22273C25.1281 2.74667 27.5873 3.49459 29.21 5.1846C30.8327 6.87462 31.3723 9.24982 30.6253 11.4151C30.4729 11.8557 30.5823 12.3392 30.9123 12.6834C31.2422 13.0277 31.7425 13.1804 32.2248 13.0841C32.7071 12.9878 33.098 12.657 33.2504 12.2164C34.3007 9.17217 33.5404 5.83263 31.2564 3.45856" fill="#FF9933"/>
<path d="M26.5481 6.60158C25.7478 5.49245 24.5353 5.00231 23.3677 5.31603C23.0622 5.38681 22.8116 5.65952 22.7131 6.0282C22.6146 6.39687 22.6839 6.80336 22.894 7.08973C23.104 7.3761 23.4218 7.49719 23.7237 7.40595C24.295 7.25093 24.8888 7.49011 25.2806 8.03295C25.6723 8.5758 25.802 9.33937 25.6207 10.0347C25.4893 10.4076 25.5389 10.8415 25.7485 11.1534C25.958 11.4653 26.2911 11.601 26.6073 11.5033C26.9234 11.4055 27.1676 11.0913 27.2369 10.6931C27.6086 9.27289 27.3459 7.71246 26.5481 6.60048" fill="#FF9933"/>
<path fill-rule="evenodd" clip-rule="evenodd" d="M7.36713 16.315C8.73982 13.8542 11.6335 12.6145 14.4056 13.2996L14.405 13.3008C17.2442 14.0214 18.6944 16.6504 17.5335 19.2032C16.3544 21.8264 12.9701 23.2098 10.0973 22.3012C7.32588 21.4204 6.15202 18.7359 7.36713 16.315ZM14.1463 17.1652C13.9459 17.5018 13.5312 17.6526 13.1557 17.5254C12.9934 17.4599 12.87 17.326 12.8198 17.1609C12.7695 16.9959 12.7979 16.8175 12.897 16.6753C13.0943 16.3456 13.4998 16.1964 13.8693 16.3173C14.0346 16.3783 14.1628 16.5098 14.2175 16.6745C14.2723 16.8393 14.2479 17.0196 14.151 17.1646L14.1463 17.1652ZM12.3124 19.4813C11.7525 20.3545 10.6384 20.7126 9.66064 20.3338C9.23672 20.1487 8.92209 19.7839 8.80627 19.3429C8.69045 18.902 8.78611 18.4333 9.06605 18.0702C9.61952 17.2285 10.6916 16.873 11.6518 17.2126C12.0815 17.392 12.4047 17.7535 12.53 18.1949C12.6553 18.6363 12.5692 19.1097 12.2959 19.4813H12.3124Z" fill="black"/>
</svg>
