<svg width="33" height="33" viewBox="0 0 33 33" fill="none" xmlns="http://www.w3.org/2000/svg">
<g clip-path="url(#clip0)">
<path fill-rule="evenodd" clip-rule="evenodd" d="M9.54571 1.54404C11.6604 0.557906 14.0137 0 16.5009 0C25.6146 0 33.0008 7.38781 33.0008 16.5001C33.0008 25.6123 25.6145 33 16.5009 33C7.3873 33 0.000976562 25.6123 0.000976562 16.4999C0.000976562 13.9894 0.568486 11.6134 1.57151 9.48318C0.703967 8.13108 0.000976562 6.68424 0.000976562 5.5362C0.000976562 2.4837 2.53321 0 5.64572 0C7.1585 0 8.53141 0.590068 9.54571 1.54404ZM5.64572 1.30266C3.24845 1.30266 1.30364 3.19707 1.30364 5.5362C1.30364 7.87398 5.64572 12.5921 5.64572 12.5921C5.64572 12.5921 9.98779 7.87398 9.98779 5.5362C9.98779 3.19713 8.04344 1.30266 5.64572 1.30266ZM2.43988 10.7445C1.70956 12.5209 1.30357 14.4635 1.30351 16.4997C1.30351 19.1363 1.97956 21.6173 3.16311 23.7816C3.49047 23.3956 3.9495 22.9168 4.30464 22.5967L4.83831 22.1182C4.94028 22.0288 5.09703 21.8308 5.21736 21.6189C5.34066 21.4082 5.4336 21.1738 5.45964 21.0405L5.57733 20.4768C5.58429 20.4416 5.58951 20.3956 5.58906 20.3431C5.58996 20.2185 5.56044 20.0521 5.50701 19.9067C5.45442 19.7604 5.37546 19.6358 5.32203 19.582L4.7328 18.9671C4.4862 18.7136 4.33854 18.3727 4.34028 18.0262C4.33983 17.7956 4.40499 17.5659 4.52397 17.3684C4.64334 17.1703 4.81446 17.0053 5.01723 16.8859L6.0713 16.2621C6.40111 16.0693 6.75953 15.9986 7.11273 15.9964C7.49655 15.9989 7.88346 16.0814 8.23299 16.3025L9.28551 16.9802C9.35983 17.0327 9.55866 17.0931 9.75015 17.0901C9.90864 17.0917 10.0584 17.0523 10.1244 17.0149L11.411 16.3323C11.5061 16.2845 11.672 16.1434 11.7988 15.975C11.9282 15.8091 12.022 15.6124 12.0433 15.5077L12.2435 14.6384L12.2521 14.6032C12.2708 14.5224 12.2843 14.3952 12.2843 14.2559C12.2843 14.0983 12.2682 13.9229 12.2387 13.7648C12.2096 13.6067 12.1657 13.4647 12.1275 13.3831L11.3924 11.7827C11.2977 11.5773 11.253 11.3593 11.253 11.1487C11.253 10.5742 11.5791 10.0236 12.1362 9.76445L13.8778 8.96072C13.9647 8.92379 14.1218 8.7992 14.2391 8.64465C14.3597 8.49267 14.4414 8.30949 14.4552 8.2161L14.7123 6.81534L14.7119 6.81669C14.7193 6.77499 14.7254 6.71634 14.7249 6.6495C14.7254 6.50229 14.698 6.31338 14.6494 6.14406C14.602 5.97468 14.5295 5.82231 14.4752 5.74851L13.4848 4.35729L13.4857 4.35813C13.2295 3.99248 13.1332 3.57696 13.1296 3.16491C13.1313 2.83748 13.1948 2.50574 13.3654 2.19663L13.7185 1.56183C12.5656 1.77684 11.4584 2.12283 10.412 2.5827C10.9652 3.43851 11.2903 4.44984 11.2903 5.5362C11.2903 8.24478 7.38679 12.6238 6.60394 13.474L5.64565 14.5157L4.68736 13.474C4.34299 13.1001 3.39385 12.042 2.43988 10.7445ZM11.5406 30.8615L12.2223 28.5146C12.2305 28.4851 12.2375 28.4434 12.2374 28.3936C12.2382 28.2998 12.2117 28.1778 12.164 28.0762C12.118 27.9733 12.0506 27.8947 12.0042 27.8613L11.1597 27.2282C10.7616 26.9291 10.5522 26.4692 10.5527 26.0103C10.5527 25.6951 10.6517 25.372 10.8558 25.1006L13.1644 22.0225C13.484 21.6004 13.9682 21.3903 14.4519 21.3894C14.7358 21.389 15.0276 21.4633 15.2886 21.6261L16.0502 22.1019C16.3271 22.2769 16.5291 22.5192 16.6672 22.785C16.8048 23.052 16.8825 23.3478 16.8834 23.6569C16.8834 23.8128 16.8629 23.9735 16.8152 24.1337L16.4765 25.2622L16.4747 25.267L16.4687 25.306V25.3125L16.4709 25.3134L16.5186 25.3238L18.4175 25.4701L18.4587 25.4715C18.5742 25.4732 18.7675 25.4328 18.939 25.3573C19.1122 25.2852 19.2638 25.1749 19.3232 25.1046L20.3172 23.9869C18.6564 21.8675 16.5014 18.6948 16.5014 16.4998C16.5014 12.9085 19.4231 9.98669 23.0145 9.98669C25.4964 9.98669 27.657 11.3827 28.7563 13.4299L28.8766 13.4086C29.0243 13.3826 29.1715 13.3726 29.3208 13.3726C29.5953 13.373 29.8753 13.4073 30.1476 13.469C30.4199 13.5319 30.68 13.6188 30.9209 13.7517L31.5028 14.0751C30.3382 6.84383 24.0557 1.30247 16.5012 1.30247C16.1052 1.30247 15.7144 1.32335 15.3253 1.35461L14.5034 2.83181C14.4677 2.89169 14.4308 3.02421 14.4322 3.16658C14.4291 3.34718 14.4916 3.5339 14.5459 3.60248L14.5464 3.60332L15.5364 4.99409C15.7079 5.23682 15.8204 5.50559 15.902 5.78654C15.9823 6.06742 16.0275 6.35965 16.0283 6.65014C16.0278 6.78305 16.0183 6.91627 15.994 7.04962L15.9935 7.05098L15.7364 8.45135C15.6648 8.82789 15.4907 9.15396 15.2684 9.44354C15.0434 9.73062 14.7712 9.98063 14.4247 10.144L12.6826 10.9477C12.6054 10.9816 12.5563 11.0649 12.5563 11.1492L12.5749 11.2355L12.5758 11.2373L13.3118 12.8395C13.4112 13.0575 13.475 13.288 13.5198 13.5277C13.564 13.7671 13.587 14.0137 13.5875 14.2559C13.587 14.4713 13.5693 14.6811 13.5241 14.8864L13.3139 15.8C13.2283 16.1616 13.0521 16.4795 12.8332 16.7683C12.611 17.0539 12.3499 17.3062 12.0226 17.4829L10.736 18.1655C10.4203 18.3306 10.0847 18.3905 9.75119 18.3922C9.34919 18.3892 8.94494 18.3046 8.58104 18.0748L7.52936 17.3974C7.46078 17.3492 7.28753 17.2963 7.11383 17.2984C6.95353 17.2967 6.80033 17.3414 6.73736 17.3818L6.73601 17.3823L5.68129 18.0063L5.65003 18.0319L5.67304 18.0631L5.6744 18.064L6.26447 18.6801C6.48251 18.9095 6.62747 19.1765 6.73169 19.4583C6.83423 19.7409 6.89321 20.0388 6.89366 20.3423C6.89366 20.4743 6.88186 20.6059 6.85544 20.7366L6.73691 21.3063C6.66478 21.6398 6.52363 21.9611 6.34826 22.2685C6.17024 22.5745 5.96315 22.8577 5.70998 23.0869L5.17676 23.5654C4.85894 23.849 4.32881 24.4052 4.07171 24.7243C4.02614 24.7802 3.9824 24.8344 3.9406 24.8862L3.88196 24.9588C5.70991 27.677 8.39251 29.7712 11.5406 30.8615ZM23.0142 25.1842C23.0142 25.1842 28.2247 19.3771 28.2247 16.5005C28.2247 13.6216 25.8917 11.2899 23.0142 11.2899C20.1362 11.2899 17.8036 13.6217 17.8036 16.5005C17.8036 19.3771 23.0142 25.1842 23.0142 25.1842ZM12.7889 31.2366C13.9773 31.5362 15.2209 31.6973 16.5009 31.6973C24.8807 31.6973 31.6983 24.8797 31.6986 16.4999C31.6986 16.2181 31.6895 15.9384 31.6739 15.6597L30.2883 14.8898C30.2005 14.8399 30.0373 14.7787 29.8584 14.7387C29.6789 14.6978 29.4819 14.6748 29.3208 14.6753C29.3143 14.6753 29.3081 14.6754 29.3021 14.6757C29.297 14.6759 29.292 14.6762 29.287 14.6764C29.2791 14.6768 29.2713 14.6773 29.263 14.6775C29.4323 15.2566 29.5274 15.8672 29.5274 16.5003C29.5274 19.713 24.9096 25.0221 23.9834 26.0538L23.0142 27.1345L22.045 26.0542C21.8653 25.8541 21.5448 25.4907 21.1475 25.0139L20.2973 25.9709C20.0594 26.2349 19.768 26.4177 19.4554 26.554C19.1414 26.6877 18.8083 26.7728 18.4593 26.7745C18.4123 26.7745 18.3655 26.7729 18.3181 26.7693L16.4192 26.623C16.0793 26.5982 15.7554 26.4541 15.5252 26.2122C15.2938 25.973 15.1648 25.6412 15.1662 25.306C15.1662 25.168 15.1865 25.0256 15.23 24.8849L15.5673 23.7594C15.5747 23.7343 15.5808 23.6995 15.5808 23.657C15.5816 23.5762 15.556 23.4711 15.5108 23.3848C15.4661 23.2975 15.404 23.2337 15.3593 23.2067L14.5981 22.7309C14.5604 22.7075 14.5104 22.6923 14.4518 22.6923C14.3502 22.6909 14.2494 22.7426 14.2069 22.8038L11.8977 25.8824C11.8686 25.9211 11.856 25.9631 11.8556 26.0105C11.856 26.0808 11.8856 26.1446 11.9411 26.1859L12.7853 26.8189C13.0424 27.0129 13.2221 27.2626 13.3467 27.5306C13.4706 27.7998 13.5392 28.0911 13.54 28.3938C13.54 28.5527 13.52 28.7147 13.4736 28.8767L12.7889 31.2366ZM23.0135 13.4604C21.574 13.4604 20.4082 14.6267 20.4082 16.0657C20.4082 17.5047 21.5741 18.671 23.0135 18.671C24.4524 18.671 25.6187 17.5047 25.6187 16.0657C25.6187 14.6267 24.4524 13.4604 23.0135 13.4604ZM23.0135 17.3684C22.2953 17.3684 21.7108 16.7839 21.7108 16.0657C21.7108 15.3475 22.2953 14.7631 23.0135 14.7631C23.7317 14.7631 24.3161 15.3475 24.3161 16.0657C24.3161 16.7839 23.7317 17.3684 23.0135 17.3684ZM13.5234 14.8899L13.5243 14.886L13.5299 14.8591L13.5234 14.8899ZM3.58203 5.2101C3.58203 4.01037 4.55289 3.03906 5.75262 3.03906C6.95235 3.03906 7.92417 4.01082 7.92411 5.2101C7.92411 6.40938 6.95241 7.38114 5.75268 7.38114C4.55295 7.38114 3.58203 6.40938 3.58203 5.2101ZM4.88469 5.2101C4.88469 5.68899 5.27373 6.07893 5.75268 6.07848C6.23209 6.07848 6.62158 5.68899 6.62151 5.2101C6.62151 4.73121 6.23209 4.34172 5.75268 4.34172C5.27373 4.34172 4.88469 4.73121 4.88469 5.2101Z" fill="url(#paint0_linear)"/>
</g>
<defs>
<linearGradient id="paint0_linear" x1="28.3578" y1="-3.28931" x2="-4.64207" y2="5.99672" gradientUnits="userSpaceOnUse">
<stop stop-color="#E96F67"/>
<stop offset="1" stop-color="#EE5050"/>
</linearGradient>
<clipPath id="clip0">
<rect width="33" height="33" fill="white"/>
</clipPath>
</defs>
</svg>
